M48
; DRILL file {KiCad (6.0.1)} date Tue Mar  8 09:50:48 2022
; FORMAT={-:-/ absolute / inch / decimal}
; #@! TF.CreationDate,2022-03-08T09:50:48-08:00
; #@! TF.GenerationSoftware,Kicad,Pcbnew,(6.0.1)
; #@! TF.FileFunction,MixedPlating,1,2
FMAT,2
INCH
; #@! TA.AperFunction,Plated,PTH,ViaDrill
T1C0.0157
; #@! TA.AperFunction,Plated,PTH,ComponentDrill
T2C0.0394
%
G90
G05
T1
X3.3563Y-2.6476
X3.3563Y-2.7657
X3.3563Y-2.8169
X3.3563Y-2.9823
X3.3563Y-3.1004
X3.3583Y-2.9311
X3.4252Y-2.6476
X3.4252Y-2.7657
X3.4252Y-2.9823
X3.4252Y-3.1004
X3.4941Y-2.6476
X3.4941Y-2.7657
X3.4941Y-2.8169
X3.4941Y-2.9823
X3.4941Y-3.1004
X3.4961Y-2.9311
X3.563Y-2.6476
X3.563Y-2.7067
X3.563Y-2.7657
X3.563Y-2.9823
X3.563Y-3.0413
X3.563Y-3.1004
X3.6319Y-2.6476
X3.6319Y-2.8169
X3.6339Y-2.9311
X3.6339Y-3.1004
X3.7697Y-2.6476
X3.7697Y-2.8169
X3.7717Y-2.9311
X3.7717Y-3.1004
X3.7874Y-2.7441
X3.8268Y-2.7441
X3.8661Y-2.7441
X3.9075Y-2.6476
X3.9075Y-2.8169
X3.9094Y-2.9311
X3.9094Y-3.1004
X4.0453Y-2.6476
X4.0453Y-2.8169
X4.0472Y-3.1004
X4.1831Y-2.6476
X4.1831Y-2.8169
X4.185Y-2.9311
X4.185Y-3.1004
X4.3209Y-2.6476
X4.3209Y-2.8169
X4.3228Y-2.9311
X4.3228Y-3.1004
X4.3898Y-2.6476
X4.3898Y-2.7067
X4.3898Y-2.7657
X4.3917Y-2.9823
X4.3917Y-3.0413
X4.3917Y-3.1004
X4.4587Y-2.6476
X4.4587Y-2.7657
X4.4587Y-2.8169
X4.4606Y-2.9311
X4.4606Y-2.9823
X4.4606Y-3.1004
X4.5276Y-2.6476
X4.5276Y-2.7657
X4.5295Y-2.9823
X4.5295Y-3.1004
X4.5965Y-2.6476
X4.5965Y-2.7657
X4.5965Y-2.8169
X4.5984Y-2.9311
X4.5984Y-2.9823
X4.5984Y-3.1004
T2
X4.1953Y-3.0384
X4.2953Y-3.0384
T0
M30
