%TF.GenerationSoftware,KiCad,Pcbnew,(6.0.1)*%
%TF.CreationDate,2022-03-08T09:49:56-08:00*%
%TF.ProjectId,436.5MHz LNA,3433362e-354d-4487-9a20-4c4e412e6b69,rev?*%
%TF.SameCoordinates,Original*%
%TF.FileFunction,Soldermask,Top*%
%TF.FilePolarity,Negative*%
%FSLAX46Y46*%
G04 Gerber Fmt 4.6, Leading zero omitted, Abs format (unit mm)*
G04 Created by KiCad (PCBNEW (6.0.1)) date 2022-03-08 09:49:56*
%MOMM*%
%LPD*%
G01*
G04 APERTURE LIST*
G04 Aperture macros list*
%AMRoundRect*
0 Rectangle with rounded corners*
0 $1 Rounding radius*
0 $2 $3 $4 $5 $6 $7 $8 $9 X,Y pos of 4 corners*
0 Add a 4 corners polygon primitive as box body*
4,1,4,$2,$3,$4,$5,$6,$7,$8,$9,$2,$3,0*
0 Add four circle primitives for the rounded corners*
1,1,$1+$1,$2,$3*
1,1,$1+$1,$4,$5*
1,1,$1+$1,$6,$7*
1,1,$1+$1,$8,$9*
0 Add four rect primitives between the rounded corners*
20,1,$1+$1,$2,$3,$4,$5,0*
20,1,$1+$1,$4,$5,$6,$7,0*
20,1,$1+$1,$6,$7,$8,$9,0*
20,1,$1+$1,$8,$9,$2,$3,0*%
G04 Aperture macros list end*
%ADD10RoundRect,0.225000X-0.225000X-0.250000X0.225000X-0.250000X0.225000X0.250000X-0.225000X0.250000X0*%
%ADD11RoundRect,0.218750X-0.256250X0.218750X-0.256250X-0.218750X0.256250X-0.218750X0.256250X0.218750X0*%
%ADD12RoundRect,0.200000X-0.200000X-0.275000X0.200000X-0.275000X0.200000X0.275000X-0.200000X0.275000X0*%
%ADD13RoundRect,0.150000X0.150000X-0.587500X0.150000X0.587500X-0.150000X0.587500X-0.150000X-0.587500X0*%
%ADD14RoundRect,0.225000X0.250000X-0.225000X0.250000X0.225000X-0.250000X0.225000X-0.250000X-0.225000X0*%
%ADD15R,5.080000X1.500000*%
%ADD16RoundRect,0.200000X-0.275000X0.200000X-0.275000X-0.200000X0.275000X-0.200000X0.275000X0.200000X0*%
%ADD17R,1.700000X1.700000*%
%ADD18O,1.700000X1.700000*%
G04 APERTURE END LIST*
D10*
X108875000Y-73000000D03*
X110425000Y-73000000D03*
D11*
X107350000Y-73012500D03*
X107350000Y-74587500D03*
D10*
X104275000Y-73000000D03*
X105825000Y-73000000D03*
D11*
X102750000Y-73012500D03*
X102750000Y-74587500D03*
D12*
X99625000Y-73000000D03*
X101275000Y-73000000D03*
D13*
X96250000Y-72987500D03*
X98150000Y-72987500D03*
X97200000Y-71112500D03*
D11*
X94700000Y-73012500D03*
X94700000Y-74587500D03*
D10*
X91625000Y-73000000D03*
X93175000Y-73000000D03*
D14*
X93100000Y-77625000D03*
X93100000Y-76075000D03*
D15*
X115000000Y-73000000D03*
X115000000Y-68750000D03*
X115000000Y-77250000D03*
X87012500Y-73000000D03*
X87012500Y-77250000D03*
X87012500Y-68750000D03*
D16*
X102750000Y-76025000D03*
X102750000Y-77675000D03*
X94700000Y-76025000D03*
X94700000Y-77675000D03*
D17*
X109100000Y-77175000D03*
D18*
X106560000Y-77175000D03*
D14*
X101200000Y-77625000D03*
X101200000Y-76075000D03*
G36*
X117592121Y-72020002D02*
G01*
X117638614Y-72073658D01*
X117650000Y-72126000D01*
X117650000Y-73874000D01*
X117629998Y-73942121D01*
X117576342Y-73988614D01*
X117524000Y-74000000D01*
X116722000Y-74000000D01*
X116653879Y-73979998D01*
X116607386Y-73926342D01*
X116596000Y-73874000D01*
X116596000Y-73426000D01*
X116616002Y-73357879D01*
X116669658Y-73311386D01*
X116722000Y-73300000D01*
X116831885Y-73300000D01*
X116847124Y-73295525D01*
X116848329Y-73294135D01*
X116850000Y-73286452D01*
X116850000Y-72718115D01*
X116845525Y-72702876D01*
X116844135Y-72701671D01*
X116836452Y-72700000D01*
X116722000Y-72700000D01*
X116653879Y-72679998D01*
X116607386Y-72626342D01*
X116596000Y-72574000D01*
X116596000Y-72126000D01*
X116616002Y-72057879D01*
X116669658Y-72011386D01*
X116722000Y-72000000D01*
X117524000Y-72000000D01*
X117592121Y-72020002D01*
G37*
G36*
X106446121Y-72020002D02*
G01*
X106492614Y-72073658D01*
X106504000Y-72126000D01*
X106504000Y-72574000D01*
X106483998Y-72642121D01*
X106430342Y-72688614D01*
X106378000Y-72700000D01*
X106268115Y-72700000D01*
X106252876Y-72704475D01*
X106251671Y-72705865D01*
X106250000Y-72713548D01*
X106250000Y-73281885D01*
X106254475Y-73297124D01*
X106255865Y-73298329D01*
X106263548Y-73300000D01*
X106378000Y-73300000D01*
X106446121Y-73320002D01*
X106492614Y-73373658D01*
X106504000Y-73426000D01*
X106504000Y-73874000D01*
X106483998Y-73942121D01*
X106430342Y-73988614D01*
X106378000Y-74000000D01*
X103722000Y-74000000D01*
X103653879Y-73979998D01*
X103607386Y-73926342D01*
X103596000Y-73874000D01*
X103596000Y-73426000D01*
X103616002Y-73357879D01*
X103669658Y-73311386D01*
X103722000Y-73300000D01*
X103831885Y-73300000D01*
X103847124Y-73295525D01*
X103848329Y-73294135D01*
X103850000Y-73286452D01*
X103850000Y-72718115D01*
X103845525Y-72702876D01*
X103844135Y-72701671D01*
X103836452Y-72700000D01*
X103722000Y-72700000D01*
X103653879Y-72679998D01*
X103607386Y-72626342D01*
X103596000Y-72574000D01*
X103596000Y-72126000D01*
X103616002Y-72057879D01*
X103669658Y-72011386D01*
X103722000Y-72000000D01*
X106378000Y-72000000D01*
X106446121Y-72020002D01*
G37*
G36*
X102396121Y-72020002D02*
G01*
X102442614Y-72073658D01*
X102454000Y-72126000D01*
X102454000Y-72574000D01*
X102433998Y-72642121D01*
X102380342Y-72688614D01*
X102328000Y-72700000D01*
X102218115Y-72700000D01*
X102202876Y-72704475D01*
X102201671Y-72705865D01*
X102200000Y-72713548D01*
X102200000Y-73281885D01*
X102204475Y-73297124D01*
X102205865Y-73298329D01*
X102213548Y-73300000D01*
X102328000Y-73300000D01*
X102396121Y-73320002D01*
X102442614Y-73373658D01*
X102454000Y-73426000D01*
X102454000Y-73874000D01*
X102433998Y-73942121D01*
X102380342Y-73988614D01*
X102328000Y-74000000D01*
X101622000Y-74000000D01*
X101553879Y-73979998D01*
X101507386Y-73926342D01*
X101496000Y-73874000D01*
X101496000Y-73426000D01*
X101516002Y-73357879D01*
X101569658Y-73311386D01*
X101622000Y-73300000D01*
X101731885Y-73300000D01*
X101747124Y-73295525D01*
X101748329Y-73294135D01*
X101750000Y-73286452D01*
X101750000Y-72718115D01*
X101745525Y-72702876D01*
X101744135Y-72701671D01*
X101736452Y-72700000D01*
X101622000Y-72700000D01*
X101553879Y-72679998D01*
X101507386Y-72626342D01*
X101496000Y-72574000D01*
X101496000Y-72126000D01*
X101516002Y-72057879D01*
X101569658Y-72011386D01*
X101622000Y-72000000D01*
X102328000Y-72000000D01*
X102396121Y-72020002D01*
G37*
G36*
X106996121Y-72020002D02*
G01*
X107042614Y-72073658D01*
X107054000Y-72126000D01*
X107054000Y-72574000D01*
X107033998Y-72642121D01*
X106980342Y-72688614D01*
X106928000Y-72700000D01*
X106818115Y-72700000D01*
X106802876Y-72704475D01*
X106801671Y-72705865D01*
X106800000Y-72713548D01*
X106800000Y-73281885D01*
X106804475Y-73297124D01*
X106805865Y-73298329D01*
X106813548Y-73300000D01*
X106928000Y-73300000D01*
X106996121Y-73320002D01*
X107042614Y-73373658D01*
X107054000Y-73426000D01*
X107054000Y-73874000D01*
X107033998Y-73942121D01*
X106980342Y-73988614D01*
X106928000Y-74000000D01*
X106222000Y-74000000D01*
X106153879Y-73979998D01*
X106107386Y-73926342D01*
X106096000Y-73874000D01*
X106096000Y-73426000D01*
X106116002Y-73357879D01*
X106169658Y-73311386D01*
X106222000Y-73300000D01*
X106331885Y-73300000D01*
X106347124Y-73295525D01*
X106348329Y-73294135D01*
X106350000Y-73286452D01*
X106350000Y-72718115D01*
X106345525Y-72702876D01*
X106344135Y-72701671D01*
X106336452Y-72700000D01*
X106222000Y-72700000D01*
X106153879Y-72679998D01*
X106107386Y-72626342D01*
X106096000Y-72574000D01*
X106096000Y-72126000D01*
X106116002Y-72057879D01*
X106169658Y-72011386D01*
X106222000Y-72000000D01*
X106928000Y-72000000D01*
X106996121Y-72020002D01*
G37*
G36*
X98646121Y-72020002D02*
G01*
X98692614Y-72073658D01*
X98704000Y-72126000D01*
X98704000Y-72574000D01*
X98683998Y-72642121D01*
X98630342Y-72688614D01*
X98578000Y-72700000D01*
X98468115Y-72700000D01*
X98452876Y-72704475D01*
X98451671Y-72705865D01*
X98450000Y-72713548D01*
X98450000Y-73281885D01*
X98454475Y-73297124D01*
X98455865Y-73298329D01*
X98463548Y-73300000D01*
X98578000Y-73300000D01*
X98646121Y-73320002D01*
X98692614Y-73373658D01*
X98704000Y-73426000D01*
X98704000Y-73874000D01*
X98683998Y-73942121D01*
X98630342Y-73988614D01*
X98578000Y-74000000D01*
X95822000Y-74000000D01*
X95753879Y-73979998D01*
X95707386Y-73926342D01*
X95696000Y-73874000D01*
X95696000Y-73426000D01*
X95716002Y-73357879D01*
X95769658Y-73311386D01*
X95822000Y-73300000D01*
X95931885Y-73300000D01*
X95947124Y-73295525D01*
X95948329Y-73294135D01*
X95950000Y-73286452D01*
X95950000Y-72718115D01*
X95945525Y-72702876D01*
X95944135Y-72701671D01*
X95936452Y-72700000D01*
X95822000Y-72700000D01*
X95753879Y-72679998D01*
X95707386Y-72626342D01*
X95696000Y-72574000D01*
X95696000Y-72126000D01*
X95716002Y-72057879D01*
X95769658Y-72011386D01*
X95822000Y-72000000D01*
X98578000Y-72000000D01*
X98646121Y-72020002D01*
G37*
G36*
X117592121Y-72020002D02*
G01*
X117638614Y-72073658D01*
X117650000Y-72126000D01*
X117650000Y-72574000D01*
X117629998Y-72642121D01*
X117576342Y-72688614D01*
X117524000Y-72700000D01*
X84476000Y-72700000D01*
X84407879Y-72679998D01*
X84361386Y-72626342D01*
X84350000Y-72574000D01*
X84350000Y-72126000D01*
X84370002Y-72057879D01*
X84423658Y-72011386D01*
X84476000Y-72000000D01*
X117524000Y-72000000D01*
X117592121Y-72020002D01*
G37*
G36*
X107996121Y-72020002D02*
G01*
X108042614Y-72073658D01*
X108054000Y-72126000D01*
X108054000Y-72574000D01*
X108033998Y-72642121D01*
X107980342Y-72688614D01*
X107928000Y-72700000D01*
X107818115Y-72700000D01*
X107802876Y-72704475D01*
X107801671Y-72705865D01*
X107800000Y-72713548D01*
X107800000Y-73281885D01*
X107804475Y-73297124D01*
X107805865Y-73298329D01*
X107813548Y-73300000D01*
X107928000Y-73300000D01*
X107996121Y-73320002D01*
X108042614Y-73373658D01*
X108054000Y-73426000D01*
X108054000Y-73874000D01*
X108033998Y-73942121D01*
X107980342Y-73988614D01*
X107928000Y-74000000D01*
X106772000Y-74000000D01*
X106703879Y-73979998D01*
X106657386Y-73926342D01*
X106646000Y-73874000D01*
X106646000Y-73426000D01*
X106666002Y-73357879D01*
X106719658Y-73311386D01*
X106772000Y-73300000D01*
X106881885Y-73300000D01*
X106897124Y-73295525D01*
X106898329Y-73294135D01*
X106900000Y-73286452D01*
X106900000Y-72718115D01*
X106895525Y-72702876D01*
X106894135Y-72701671D01*
X106886452Y-72700000D01*
X106772000Y-72700000D01*
X106703879Y-72679998D01*
X106657386Y-72626342D01*
X106646000Y-72574000D01*
X106646000Y-72126000D01*
X106666002Y-72057879D01*
X106719658Y-72011386D01*
X106772000Y-72000000D01*
X107928000Y-72000000D01*
X107996121Y-72020002D01*
G37*
G36*
X94346121Y-72020002D02*
G01*
X94392614Y-72073658D01*
X94404000Y-72126000D01*
X94404000Y-72574000D01*
X94383998Y-72642121D01*
X94330342Y-72688614D01*
X94278000Y-72700000D01*
X94168115Y-72700000D01*
X94152876Y-72704475D01*
X94151671Y-72705865D01*
X94150000Y-72713548D01*
X94150000Y-73281885D01*
X94154475Y-73297124D01*
X94155865Y-73298329D01*
X94163548Y-73300000D01*
X94278000Y-73300000D01*
X94346121Y-73320002D01*
X94392614Y-73373658D01*
X94404000Y-73426000D01*
X94404000Y-73874000D01*
X94383998Y-73942121D01*
X94330342Y-73988614D01*
X94278000Y-74000000D01*
X93572000Y-74000000D01*
X93503879Y-73979998D01*
X93457386Y-73926342D01*
X93446000Y-73874000D01*
X93446000Y-73426000D01*
X93466002Y-73357879D01*
X93519658Y-73311386D01*
X93572000Y-73300000D01*
X93681885Y-73300000D01*
X93697124Y-73295525D01*
X93698329Y-73294135D01*
X93700000Y-73286452D01*
X93700000Y-72718115D01*
X93695525Y-72702876D01*
X93694135Y-72701671D01*
X93686452Y-72700000D01*
X93572000Y-72700000D01*
X93503879Y-72679998D01*
X93457386Y-72626342D01*
X93446000Y-72574000D01*
X93446000Y-72126000D01*
X93466002Y-72057879D01*
X93519658Y-72011386D01*
X93572000Y-72000000D01*
X94278000Y-72000000D01*
X94346121Y-72020002D01*
G37*
G36*
X108546121Y-72020002D02*
G01*
X108592614Y-72073658D01*
X108604000Y-72126000D01*
X108604000Y-72574000D01*
X108583998Y-72642121D01*
X108530342Y-72688614D01*
X108478000Y-72700000D01*
X108368115Y-72700000D01*
X108352876Y-72704475D01*
X108351671Y-72705865D01*
X108350000Y-72713548D01*
X108350000Y-73281885D01*
X108354475Y-73297124D01*
X108355865Y-73298329D01*
X108363548Y-73300000D01*
X108478000Y-73300000D01*
X108546121Y-73320002D01*
X108592614Y-73373658D01*
X108604000Y-73426000D01*
X108604000Y-73874000D01*
X108583998Y-73942121D01*
X108530342Y-73988614D01*
X108478000Y-74000000D01*
X107772000Y-74000000D01*
X107703879Y-73979998D01*
X107657386Y-73926342D01*
X107646000Y-73874000D01*
X107646000Y-73426000D01*
X107666002Y-73357879D01*
X107719658Y-73311386D01*
X107772000Y-73300000D01*
X107881885Y-73300000D01*
X107897124Y-73295525D01*
X107898329Y-73294135D01*
X107900000Y-73286452D01*
X107900000Y-72718115D01*
X107895525Y-72702876D01*
X107894135Y-72701671D01*
X107886452Y-72700000D01*
X107772000Y-72700000D01*
X107703879Y-72679998D01*
X107657386Y-72626342D01*
X107646000Y-72574000D01*
X107646000Y-72126000D01*
X107666002Y-72057879D01*
X107719658Y-72011386D01*
X107772000Y-72000000D01*
X108478000Y-72000000D01*
X108546121Y-72020002D01*
G37*
G36*
X111046121Y-72020002D02*
G01*
X111092614Y-72073658D01*
X111104000Y-72126000D01*
X111104000Y-72574000D01*
X111083998Y-72642121D01*
X111030342Y-72688614D01*
X110978000Y-72700000D01*
X110868115Y-72700000D01*
X110852876Y-72704475D01*
X110851671Y-72705865D01*
X110850000Y-72713548D01*
X110850000Y-73281885D01*
X110854475Y-73297124D01*
X110855865Y-73298329D01*
X110863548Y-73300000D01*
X110978000Y-73300000D01*
X111046121Y-73320002D01*
X111092614Y-73373658D01*
X111104000Y-73426000D01*
X111104000Y-73874000D01*
X111083998Y-73942121D01*
X111030342Y-73988614D01*
X110978000Y-74000000D01*
X108322000Y-74000000D01*
X108253879Y-73979998D01*
X108207386Y-73926342D01*
X108196000Y-73874000D01*
X108196000Y-73426000D01*
X108216002Y-73357879D01*
X108269658Y-73311386D01*
X108322000Y-73300000D01*
X108431885Y-73300000D01*
X108447124Y-73295525D01*
X108448329Y-73294135D01*
X108450000Y-73286452D01*
X108450000Y-72718115D01*
X108445525Y-72702876D01*
X108444135Y-72701671D01*
X108436452Y-72700000D01*
X108322000Y-72700000D01*
X108253879Y-72679998D01*
X108207386Y-72626342D01*
X108196000Y-72574000D01*
X108196000Y-72126000D01*
X108216002Y-72057879D01*
X108269658Y-72011386D01*
X108322000Y-72000000D01*
X110978000Y-72000000D01*
X111046121Y-72020002D01*
G37*
G36*
X84996121Y-72020002D02*
G01*
X85042614Y-72073658D01*
X85054000Y-72126000D01*
X85054000Y-72574000D01*
X85033998Y-72642121D01*
X84980342Y-72688614D01*
X84928000Y-72700000D01*
X84818115Y-72700000D01*
X84802876Y-72704475D01*
X84801671Y-72705865D01*
X84800000Y-72713548D01*
X84800000Y-73281885D01*
X84804475Y-73297124D01*
X84805865Y-73298329D01*
X84813548Y-73300000D01*
X84928000Y-73300000D01*
X84996121Y-73320002D01*
X85042614Y-73373658D01*
X85054000Y-73426000D01*
X85054000Y-73874000D01*
X85033998Y-73942121D01*
X84980342Y-73988614D01*
X84928000Y-74000000D01*
X84476000Y-74000000D01*
X84407879Y-73979998D01*
X84361386Y-73926342D01*
X84350000Y-73874000D01*
X84350000Y-72126000D01*
X84370002Y-72057879D01*
X84423658Y-72011386D01*
X84476000Y-72000000D01*
X84928000Y-72000000D01*
X84996121Y-72020002D01*
G37*
G36*
X112496121Y-72020002D02*
G01*
X112542614Y-72073658D01*
X112554000Y-72126000D01*
X112554000Y-72574000D01*
X112533998Y-72642121D01*
X112480342Y-72688614D01*
X112428000Y-72700000D01*
X112318115Y-72700000D01*
X112302876Y-72704475D01*
X112301671Y-72705865D01*
X112300000Y-72713548D01*
X112300000Y-73281885D01*
X112304475Y-73297124D01*
X112305865Y-73298329D01*
X112313548Y-73300000D01*
X112428000Y-73300000D01*
X112496121Y-73320002D01*
X112542614Y-73373658D01*
X112554000Y-73426000D01*
X112554000Y-73874000D01*
X112533998Y-73942121D01*
X112480342Y-73988614D01*
X112428000Y-74000000D01*
X110822000Y-74000000D01*
X110753879Y-73979998D01*
X110707386Y-73926342D01*
X110696000Y-73874000D01*
X110696000Y-73426000D01*
X110716002Y-73357879D01*
X110769658Y-73311386D01*
X110822000Y-73300000D01*
X110931885Y-73300000D01*
X110947124Y-73295525D01*
X110948329Y-73294135D01*
X110950000Y-73286452D01*
X110950000Y-72718115D01*
X110945525Y-72702876D01*
X110944135Y-72701671D01*
X110936452Y-72700000D01*
X110822000Y-72700000D01*
X110753879Y-72679998D01*
X110707386Y-72626342D01*
X110696000Y-72574000D01*
X110696000Y-72126000D01*
X110716002Y-72057879D01*
X110769658Y-72011386D01*
X110822000Y-72000000D01*
X112428000Y-72000000D01*
X112496121Y-72020002D01*
G37*
G36*
X99346121Y-72020002D02*
G01*
X99392614Y-72073658D01*
X99404000Y-72126000D01*
X99404000Y-72574000D01*
X99383998Y-72642121D01*
X99330342Y-72688614D01*
X99278000Y-72700000D01*
X99168115Y-72700000D01*
X99152876Y-72704475D01*
X99151671Y-72705865D01*
X99150000Y-72713548D01*
X99150000Y-73281885D01*
X99154475Y-73297124D01*
X99155865Y-73298329D01*
X99163548Y-73300000D01*
X99278000Y-73300000D01*
X99346121Y-73320002D01*
X99392614Y-73373658D01*
X99404000Y-73426000D01*
X99404000Y-73874000D01*
X99383998Y-73942121D01*
X99330342Y-73988614D01*
X99278000Y-74000000D01*
X98422000Y-74000000D01*
X98353879Y-73979998D01*
X98307386Y-73926342D01*
X98296000Y-73874000D01*
X98296000Y-73426000D01*
X98316002Y-73357879D01*
X98369658Y-73311386D01*
X98422000Y-73300000D01*
X98531885Y-73300000D01*
X98547124Y-73295525D01*
X98548329Y-73294135D01*
X98550000Y-73286452D01*
X98550000Y-72718115D01*
X98545525Y-72702876D01*
X98544135Y-72701671D01*
X98536452Y-72700000D01*
X98422000Y-72700000D01*
X98353879Y-72679998D01*
X98307386Y-72626342D01*
X98296000Y-72574000D01*
X98296000Y-72126000D01*
X98316002Y-72057879D01*
X98369658Y-72011386D01*
X98422000Y-72000000D01*
X99278000Y-72000000D01*
X99346121Y-72020002D01*
G37*
G36*
X96046121Y-72020002D02*
G01*
X96092614Y-72073658D01*
X96104000Y-72126000D01*
X96104000Y-72574000D01*
X96083998Y-72642121D01*
X96030342Y-72688614D01*
X95978000Y-72700000D01*
X95868115Y-72700000D01*
X95852876Y-72704475D01*
X95851671Y-72705865D01*
X95850000Y-72713548D01*
X95850000Y-73281885D01*
X95854475Y-73297124D01*
X95855865Y-73298329D01*
X95863548Y-73300000D01*
X95978000Y-73300000D01*
X96046121Y-73320002D01*
X96092614Y-73373658D01*
X96104000Y-73426000D01*
X96104000Y-73874000D01*
X96083998Y-73942121D01*
X96030342Y-73988614D01*
X95978000Y-74000000D01*
X95122000Y-74000000D01*
X95053879Y-73979998D01*
X95007386Y-73926342D01*
X94996000Y-73874000D01*
X94996000Y-73426000D01*
X95016002Y-73357879D01*
X95069658Y-73311386D01*
X95122000Y-73300000D01*
X95231885Y-73300000D01*
X95247124Y-73295525D01*
X95248329Y-73294135D01*
X95250000Y-73286452D01*
X95250000Y-72718115D01*
X95245525Y-72702876D01*
X95244135Y-72701671D01*
X95236452Y-72700000D01*
X95122000Y-72700000D01*
X95053879Y-72679998D01*
X95007386Y-72626342D01*
X94996000Y-72574000D01*
X94996000Y-72126000D01*
X95016002Y-72057879D01*
X95069658Y-72011386D01*
X95122000Y-72000000D01*
X95978000Y-72000000D01*
X96046121Y-72020002D01*
G37*
G36*
X93796121Y-72020002D02*
G01*
X93842614Y-72073658D01*
X93854000Y-72126000D01*
X93854000Y-72574000D01*
X93833998Y-72642121D01*
X93780342Y-72688614D01*
X93728000Y-72700000D01*
X93618115Y-72700000D01*
X93602876Y-72704475D01*
X93601671Y-72705865D01*
X93600000Y-72713548D01*
X93600000Y-73281885D01*
X93604475Y-73297124D01*
X93605865Y-73298329D01*
X93613548Y-73300000D01*
X93728000Y-73300000D01*
X93796121Y-73320002D01*
X93842614Y-73373658D01*
X93854000Y-73426000D01*
X93854000Y-73874000D01*
X93833998Y-73942121D01*
X93780342Y-73988614D01*
X93728000Y-74000000D01*
X91072000Y-74000000D01*
X91003879Y-73979998D01*
X90957386Y-73926342D01*
X90946000Y-73874000D01*
X90946000Y-73426000D01*
X90966002Y-73357879D01*
X91019658Y-73311386D01*
X91072000Y-73300000D01*
X91181885Y-73300000D01*
X91197124Y-73295525D01*
X91198329Y-73294135D01*
X91200000Y-73286452D01*
X91200000Y-72718115D01*
X91195525Y-72702876D01*
X91194135Y-72701671D01*
X91186452Y-72700000D01*
X91072000Y-72700000D01*
X91003879Y-72679998D01*
X90957386Y-72626342D01*
X90946000Y-72574000D01*
X90946000Y-72126000D01*
X90966002Y-72057879D01*
X91019658Y-72011386D01*
X91072000Y-72000000D01*
X93728000Y-72000000D01*
X93796121Y-72020002D01*
G37*
G36*
X103946121Y-72020002D02*
G01*
X103992614Y-72073658D01*
X104004000Y-72126000D01*
X104004000Y-72574000D01*
X103983998Y-72642121D01*
X103930342Y-72688614D01*
X103878000Y-72700000D01*
X103768115Y-72700000D01*
X103752876Y-72704475D01*
X103751671Y-72705865D01*
X103750000Y-72713548D01*
X103750000Y-73281885D01*
X103754475Y-73297124D01*
X103755865Y-73298329D01*
X103763548Y-73300000D01*
X103878000Y-73300000D01*
X103946121Y-73320002D01*
X103992614Y-73373658D01*
X104004000Y-73426000D01*
X104004000Y-73874000D01*
X103983998Y-73942121D01*
X103930342Y-73988614D01*
X103878000Y-74000000D01*
X103172000Y-74000000D01*
X103103879Y-73979998D01*
X103057386Y-73926342D01*
X103046000Y-73874000D01*
X103046000Y-73426000D01*
X103066002Y-73357879D01*
X103119658Y-73311386D01*
X103172000Y-73300000D01*
X103281885Y-73300000D01*
X103297124Y-73295525D01*
X103298329Y-73294135D01*
X103300000Y-73286452D01*
X103300000Y-72718115D01*
X103295525Y-72702876D01*
X103294135Y-72701671D01*
X103286452Y-72700000D01*
X103172000Y-72700000D01*
X103103879Y-72679998D01*
X103057386Y-72626342D01*
X103046000Y-72574000D01*
X103046000Y-72126000D01*
X103066002Y-72057879D01*
X103119658Y-72011386D01*
X103172000Y-72000000D01*
X103878000Y-72000000D01*
X103946121Y-72020002D01*
G37*
G36*
X101846121Y-72020002D02*
G01*
X101892614Y-72073658D01*
X101904000Y-72126000D01*
X101904000Y-72574000D01*
X101883998Y-72642121D01*
X101830342Y-72688614D01*
X101778000Y-72700000D01*
X101668115Y-72700000D01*
X101652876Y-72704475D01*
X101651671Y-72705865D01*
X101650000Y-72713548D01*
X101650000Y-73281885D01*
X101654475Y-73297124D01*
X101655865Y-73298329D01*
X101663548Y-73300000D01*
X101778000Y-73300000D01*
X101846121Y-73320002D01*
X101892614Y-73373658D01*
X101904000Y-73426000D01*
X101904000Y-73874000D01*
X101883998Y-73942121D01*
X101830342Y-73988614D01*
X101778000Y-74000000D01*
X99122000Y-74000000D01*
X99053879Y-73979998D01*
X99007386Y-73926342D01*
X98996000Y-73874000D01*
X98996000Y-73426000D01*
X99016002Y-73357879D01*
X99069658Y-73311386D01*
X99122000Y-73300000D01*
X99231885Y-73300000D01*
X99247124Y-73295525D01*
X99248329Y-73294135D01*
X99250000Y-73286452D01*
X99250000Y-72718115D01*
X99245525Y-72702876D01*
X99244135Y-72701671D01*
X99236452Y-72700000D01*
X99122000Y-72700000D01*
X99053879Y-72679998D01*
X99007386Y-72626342D01*
X98996000Y-72574000D01*
X98996000Y-72126000D01*
X99016002Y-72057879D01*
X99069658Y-72011386D01*
X99122000Y-72000000D01*
X101778000Y-72000000D01*
X101846121Y-72020002D01*
G37*
G36*
X103396121Y-72020002D02*
G01*
X103442614Y-72073658D01*
X103454000Y-72126000D01*
X103454000Y-72574000D01*
X103433998Y-72642121D01*
X103380342Y-72688614D01*
X103328000Y-72700000D01*
X103218115Y-72700000D01*
X103202876Y-72704475D01*
X103201671Y-72705865D01*
X103200000Y-72713548D01*
X103200000Y-73281885D01*
X103204475Y-73297124D01*
X103205865Y-73298329D01*
X103213548Y-73300000D01*
X103328000Y-73300000D01*
X103396121Y-73320002D01*
X103442614Y-73373658D01*
X103454000Y-73426000D01*
X103454000Y-73874000D01*
X103433998Y-73942121D01*
X103380342Y-73988614D01*
X103328000Y-74000000D01*
X102172000Y-74000000D01*
X102103879Y-73979998D01*
X102057386Y-73926342D01*
X102046000Y-73874000D01*
X102046000Y-73426000D01*
X102066002Y-73357879D01*
X102119658Y-73311386D01*
X102172000Y-73300000D01*
X102281885Y-73300000D01*
X102297124Y-73295525D01*
X102298329Y-73294135D01*
X102300000Y-73286452D01*
X102300000Y-72718115D01*
X102295525Y-72702876D01*
X102294135Y-72701671D01*
X102286452Y-72700000D01*
X102172000Y-72700000D01*
X102103879Y-72679998D01*
X102057386Y-72626342D01*
X102046000Y-72574000D01*
X102046000Y-72126000D01*
X102066002Y-72057879D01*
X102119658Y-72011386D01*
X102172000Y-72000000D01*
X103328000Y-72000000D01*
X103396121Y-72020002D01*
G37*
G36*
X95346121Y-72020002D02*
G01*
X95392614Y-72073658D01*
X95404000Y-72126000D01*
X95404000Y-72574000D01*
X95383998Y-72642121D01*
X95330342Y-72688614D01*
X95278000Y-72700000D01*
X95168115Y-72700000D01*
X95152876Y-72704475D01*
X95151671Y-72705865D01*
X95150000Y-72713548D01*
X95150000Y-73281885D01*
X95154475Y-73297124D01*
X95155865Y-73298329D01*
X95163548Y-73300000D01*
X95278000Y-73300000D01*
X95346121Y-73320002D01*
X95392614Y-73373658D01*
X95404000Y-73426000D01*
X95404000Y-73874000D01*
X95383998Y-73942121D01*
X95330342Y-73988614D01*
X95278000Y-74000000D01*
X94122000Y-74000000D01*
X94053879Y-73979998D01*
X94007386Y-73926342D01*
X93996000Y-73874000D01*
X93996000Y-73426000D01*
X94016002Y-73357879D01*
X94069658Y-73311386D01*
X94122000Y-73300000D01*
X94231885Y-73300000D01*
X94247124Y-73295525D01*
X94248329Y-73294135D01*
X94250000Y-73286452D01*
X94250000Y-72718115D01*
X94245525Y-72702876D01*
X94244135Y-72701671D01*
X94236452Y-72700000D01*
X94122000Y-72700000D01*
X94053879Y-72679998D01*
X94007386Y-72626342D01*
X93996000Y-72574000D01*
X93996000Y-72126000D01*
X94016002Y-72057879D01*
X94069658Y-72011386D01*
X94122000Y-72000000D01*
X95278000Y-72000000D01*
X95346121Y-72020002D01*
G37*
G36*
X117592121Y-73320002D02*
G01*
X117638614Y-73373658D01*
X117650000Y-73426000D01*
X117650000Y-73874000D01*
X117629998Y-73942121D01*
X117576342Y-73988614D01*
X117524000Y-74000000D01*
X84476000Y-74000000D01*
X84407879Y-73979998D01*
X84361386Y-73926342D01*
X84350000Y-73874000D01*
X84350000Y-73426000D01*
X84370002Y-73357879D01*
X84423658Y-73311386D01*
X84476000Y-73300000D01*
X117524000Y-73300000D01*
X117592121Y-73320002D01*
G37*
G36*
X91296121Y-72020002D02*
G01*
X91342614Y-72073658D01*
X91354000Y-72126000D01*
X91354000Y-72574000D01*
X91333998Y-72642121D01*
X91280342Y-72688614D01*
X91228000Y-72700000D01*
X91118115Y-72700000D01*
X91102876Y-72704475D01*
X91101671Y-72705865D01*
X91100000Y-72713548D01*
X91100000Y-73281885D01*
X91104475Y-73297124D01*
X91105865Y-73298329D01*
X91113548Y-73300000D01*
X91228000Y-73300000D01*
X91296121Y-73320002D01*
X91342614Y-73373658D01*
X91354000Y-73426000D01*
X91354000Y-73874000D01*
X91333998Y-73942121D01*
X91280342Y-73988614D01*
X91228000Y-74000000D01*
X89622000Y-74000000D01*
X89553879Y-73979998D01*
X89507386Y-73926342D01*
X89496000Y-73874000D01*
X89496000Y-73426000D01*
X89516002Y-73357879D01*
X89569658Y-73311386D01*
X89622000Y-73300000D01*
X89731885Y-73300000D01*
X89747124Y-73295525D01*
X89748329Y-73294135D01*
X89750000Y-73286452D01*
X89750000Y-72718115D01*
X89745525Y-72702876D01*
X89744135Y-72701671D01*
X89736452Y-72700000D01*
X89622000Y-72700000D01*
X89553879Y-72679998D01*
X89507386Y-72626342D01*
X89496000Y-72574000D01*
X89496000Y-72126000D01*
X89516002Y-72057879D01*
X89569658Y-72011386D01*
X89622000Y-72000000D01*
X91228000Y-72000000D01*
X91296121Y-72020002D01*
G37*
M02*
