%TF.GenerationSoftware,KiCad,Pcbnew,(6.0.1)*%
%TF.CreationDate,2022-03-08T09:49:56-08:00*%
%TF.ProjectId,436.5MHz LNA,3433362e-354d-4487-9a20-4c4e412e6b69,rev?*%
%TF.SameCoordinates,Original*%
%TF.FileFunction,Copper,L1,Top*%
%TF.FilePolarity,Positive*%
%FSLAX46Y46*%
G04 Gerber Fmt 4.6, Leading zero omitted, Abs format (unit mm)*
G04 Created by KiCad (PCBNEW (6.0.1)) date 2022-03-08 09:49:56*
%MOMM*%
%LPD*%
G01*
G04 APERTURE LIST*
G04 Aperture macros list*
%AMRoundRect*
0 Rectangle with rounded corners*
0 $1 Rounding radius*
0 $2 $3 $4 $5 $6 $7 $8 $9 X,Y pos of 4 corners*
0 Add a 4 corners polygon primitive as box body*
4,1,4,$2,$3,$4,$5,$6,$7,$8,$9,$2,$3,0*
0 Add four circle primitives for the rounded corners*
1,1,$1+$1,$2,$3*
1,1,$1+$1,$4,$5*
1,1,$1+$1,$6,$7*
1,1,$1+$1,$8,$9*
0 Add four rect primitives between the rounded corners*
20,1,$1+$1,$2,$3,$4,$5,0*
20,1,$1+$1,$4,$5,$6,$7,0*
20,1,$1+$1,$6,$7,$8,$9,0*
20,1,$1+$1,$8,$9,$2,$3,0*%
G04 Aperture macros list end*
%TA.AperFunction,SMDPad,CuDef*%
%ADD10RoundRect,0.225000X-0.225000X-0.250000X0.225000X-0.250000X0.225000X0.250000X-0.225000X0.250000X0*%
%TD*%
%TA.AperFunction,SMDPad,CuDef*%
%ADD11RoundRect,0.218750X-0.256250X0.218750X-0.256250X-0.218750X0.256250X-0.218750X0.256250X0.218750X0*%
%TD*%
%TA.AperFunction,SMDPad,CuDef*%
%ADD12RoundRect,0.200000X-0.200000X-0.275000X0.200000X-0.275000X0.200000X0.275000X-0.200000X0.275000X0*%
%TD*%
%TA.AperFunction,SMDPad,CuDef*%
%ADD13RoundRect,0.150000X0.150000X-0.587500X0.150000X0.587500X-0.150000X0.587500X-0.150000X-0.587500X0*%
%TD*%
%TA.AperFunction,SMDPad,CuDef*%
%ADD14RoundRect,0.225000X0.250000X-0.225000X0.250000X0.225000X-0.250000X0.225000X-0.250000X-0.225000X0*%
%TD*%
%TA.AperFunction,SMDPad,CuDef*%
%ADD15R,5.080000X1.500000*%
%TD*%
%TA.AperFunction,SMDPad,CuDef*%
%ADD16RoundRect,0.200000X-0.275000X0.200000X-0.275000X-0.200000X0.275000X-0.200000X0.275000X0.200000X0*%
%TD*%
%TA.AperFunction,ComponentPad*%
%ADD17R,1.700000X1.700000*%
%TD*%
%TA.AperFunction,ComponentPad*%
%ADD18O,1.700000X1.700000*%
%TD*%
%TA.AperFunction,ViaPad*%
%ADD19C,0.800000*%
%TD*%
%TA.AperFunction,Conductor*%
%ADD20C,0.355000*%
%TD*%
%TA.AperFunction,Conductor*%
%ADD21C,0.800000*%
%TD*%
G04 APERTURE END LIST*
D10*
X108875000Y-73000000D03*
X110425000Y-73000000D03*
D11*
X107350000Y-73012500D03*
X107350000Y-74587500D03*
D10*
X104275000Y-73000000D03*
X105825000Y-73000000D03*
D11*
X102750000Y-73012500D03*
X102750000Y-74587500D03*
D12*
X99625000Y-73000000D03*
X101275000Y-73000000D03*
D13*
X96250000Y-72987500D03*
X98150000Y-72987500D03*
X97200000Y-71112500D03*
D11*
X94700000Y-73012500D03*
X94700000Y-74587500D03*
D10*
X91625000Y-73000000D03*
X93175000Y-73000000D03*
D14*
X93100000Y-77625000D03*
X93100000Y-76075000D03*
D15*
X115000000Y-73000000D03*
X115000000Y-68750000D03*
X115000000Y-77250000D03*
X87012500Y-73000000D03*
X87012500Y-77250000D03*
X87012500Y-68750000D03*
D16*
X102750000Y-76025000D03*
X102750000Y-77675000D03*
X94700000Y-76025000D03*
X94700000Y-77675000D03*
D17*
X109100000Y-77175000D03*
D18*
X106560000Y-77175000D03*
D14*
X101200000Y-77625000D03*
X101200000Y-76075000D03*
D19*
X85250000Y-67250000D03*
X99250000Y-67250000D03*
X113250000Y-70250000D03*
X106300000Y-74450000D03*
X111500000Y-68750000D03*
X111550000Y-75750000D03*
X99300000Y-78750000D03*
X115050000Y-78750000D03*
X116800000Y-78750000D03*
X113250000Y-71550000D03*
X88750000Y-78750000D03*
X92300000Y-74450000D03*
X116750000Y-70250000D03*
X85250000Y-70250000D03*
X95800000Y-78750000D03*
X90500000Y-78750000D03*
X113300000Y-78750000D03*
X88750000Y-71550000D03*
X106250000Y-71550000D03*
X88800000Y-74450000D03*
X102750000Y-67250000D03*
X90500000Y-67250000D03*
X115000000Y-70250000D03*
X92250000Y-71550000D03*
X92250000Y-67250000D03*
X87000000Y-70250000D03*
X102750000Y-71550000D03*
X90500000Y-70250000D03*
X87000000Y-75750000D03*
X115050000Y-75750000D03*
X111500000Y-70250000D03*
X98200000Y-69700000D03*
X99300000Y-74450000D03*
X85250000Y-78750000D03*
X95800000Y-74450000D03*
X85250000Y-71550000D03*
X99250000Y-71550000D03*
X95750000Y-71550000D03*
X102800000Y-78750000D03*
X90500000Y-68750000D03*
X115000000Y-67250000D03*
X113300000Y-74450000D03*
X111550000Y-78750000D03*
X90500000Y-75750000D03*
X109800000Y-74450000D03*
X90500000Y-77250000D03*
X87000000Y-78750000D03*
X106250000Y-67250000D03*
X88750000Y-75750000D03*
X85250000Y-75750000D03*
X116750000Y-67250000D03*
X87000000Y-67250000D03*
X116800000Y-75750000D03*
X113250000Y-67250000D03*
X95750000Y-67250000D03*
X92300000Y-78750000D03*
X111550000Y-77250000D03*
X85300000Y-74450000D03*
X111500000Y-67250000D03*
X106300000Y-78750000D03*
X109800000Y-78750000D03*
X116800000Y-74450000D03*
X96200000Y-69700000D03*
X109750000Y-67250000D03*
X88750000Y-70250000D03*
X109750000Y-71550000D03*
X113300000Y-75750000D03*
X116750000Y-71550000D03*
X88750000Y-67250000D03*
X97200000Y-69700000D03*
D20*
X87012500Y-73000000D02*
X91625000Y-73000000D01*
X93175000Y-73000000D02*
X94687500Y-73000000D01*
X94700000Y-73012500D02*
X96225000Y-73012500D01*
X96225000Y-73012500D02*
X96250000Y-72987500D01*
X94687500Y-73000000D02*
X94700000Y-73012500D01*
D21*
X94700000Y-76025000D02*
X93150000Y-76025000D01*
X93150000Y-76025000D02*
X93100000Y-76075000D01*
X94700000Y-74587500D02*
X94700000Y-76025000D01*
X102750000Y-76025000D02*
X101250000Y-76025000D01*
X101250000Y-76025000D02*
X101200000Y-76075000D01*
X102750000Y-76025000D02*
X102750000Y-74587500D01*
D20*
X102750000Y-73012500D02*
X104262500Y-73012500D01*
X104262500Y-73012500D02*
X104275000Y-73000000D01*
X102737500Y-73000000D02*
X102750000Y-73012500D01*
X101275000Y-73000000D02*
X102737500Y-73000000D01*
X105825000Y-73000000D02*
X107337500Y-73000000D01*
X107350000Y-73012500D02*
X108862500Y-73012500D01*
X108862500Y-73012500D02*
X108875000Y-73000000D01*
X107337500Y-73000000D02*
X107350000Y-73012500D01*
X110425000Y-73000000D02*
X115000000Y-73000000D01*
X99612500Y-72987500D02*
X99625000Y-73000000D01*
X98150000Y-72987500D02*
X99612500Y-72987500D01*
D21*
X102750000Y-77675000D02*
X106060000Y-77675000D01*
X106060000Y-77675000D02*
X106560000Y-77175000D01*
%TA.AperFunction,Conductor*%
G36*
X93693401Y-74020002D02*
G01*
X93739894Y-74073658D01*
X93749998Y-74143932D01*
X93744875Y-74165661D01*
X93726762Y-74220269D01*
X93716500Y-74320428D01*
X93716500Y-74854572D01*
X93727022Y-74955982D01*
X93729206Y-74962529D01*
X93729502Y-74963898D01*
X93724333Y-75034706D01*
X93681703Y-75091479D01*
X93615146Y-75116192D01*
X93606342Y-75116500D01*
X93231417Y-75116500D01*
X93211707Y-75114949D01*
X93204327Y-75113780D01*
X93204326Y-75113780D01*
X93197810Y-75112748D01*
X93191223Y-75113093D01*
X93191218Y-75113093D01*
X93129520Y-75116327D01*
X93122926Y-75116500D01*
X92801268Y-75116500D01*
X92798022Y-75116837D01*
X92798018Y-75116837D01*
X92763917Y-75120375D01*
X92698981Y-75127113D01*
X92692440Y-75129295D01*
X92692441Y-75129295D01*
X92543676Y-75178927D01*
X92543674Y-75178928D01*
X92536732Y-75181244D01*
X92391287Y-75271248D01*
X92270448Y-75392298D01*
X92266608Y-75398528D01*
X92266607Y-75398529D01*
X92185491Y-75530124D01*
X92180698Y-75537899D01*
X92126851Y-75700243D01*
X92116500Y-75801268D01*
X92116500Y-76348732D01*
X92127113Y-76451019D01*
X92129295Y-76457559D01*
X92147275Y-76511450D01*
X92181244Y-76613268D01*
X92185096Y-76619492D01*
X92185096Y-76619493D01*
X92213492Y-76665381D01*
X92271248Y-76758713D01*
X92276430Y-76763886D01*
X92280977Y-76769623D01*
X92279170Y-76771055D01*
X92307902Y-76823575D01*
X92302892Y-76894395D01*
X92279501Y-76930853D01*
X92280552Y-76931683D01*
X92267002Y-76948840D01*
X92184996Y-77081880D01*
X92178849Y-77095061D01*
X92129509Y-77243814D01*
X92126642Y-77257190D01*
X92117328Y-77348097D01*
X92117071Y-77353126D01*
X92121475Y-77368124D01*
X92122865Y-77369329D01*
X92130548Y-77371000D01*
X94026095Y-77371000D01*
X94094216Y-77391002D01*
X94108607Y-77401775D01*
X94128865Y-77419329D01*
X94136548Y-77421000D01*
X95664884Y-77421000D01*
X95680123Y-77416525D01*
X95681328Y-77415135D01*
X95682291Y-77410706D01*
X95676868Y-77351685D01*
X95674257Y-77338649D01*
X95627285Y-77188757D01*
X95621079Y-77175012D01*
X95540176Y-77041426D01*
X95530869Y-77029557D01*
X95440761Y-76939449D01*
X95406735Y-76877137D01*
X95411800Y-76806322D01*
X95440761Y-76761259D01*
X95536639Y-76665381D01*
X95625472Y-76518699D01*
X95630806Y-76501680D01*
X95668187Y-76382396D01*
X95676753Y-76355062D01*
X95683500Y-76281635D01*
X95683499Y-75768366D01*
X95676753Y-75694938D01*
X95625472Y-75531301D01*
X95621538Y-75524806D01*
X95619662Y-75520650D01*
X95608500Y-75468802D01*
X95608500Y-75165959D01*
X95619528Y-75116212D01*
X95619849Y-75115692D01*
X95646711Y-75034706D01*
X95671072Y-74961262D01*
X95671072Y-74961260D01*
X95673238Y-74954731D01*
X95683500Y-74854572D01*
X95683500Y-74320428D01*
X95683163Y-74317178D01*
X95682995Y-74313936D01*
X95684861Y-74313839D01*
X95696021Y-74251192D01*
X95744284Y-74199123D01*
X95813036Y-74181413D01*
X95843970Y-74186345D01*
X95989989Y-74228767D01*
X95989993Y-74228768D01*
X95996169Y-74230562D01*
X96002574Y-74231066D01*
X96002579Y-74231067D01*
X96031042Y-74233307D01*
X96031050Y-74233307D01*
X96033498Y-74233500D01*
X96466502Y-74233500D01*
X96468950Y-74233307D01*
X96468958Y-74233307D01*
X96497421Y-74231067D01*
X96497426Y-74231066D01*
X96503831Y-74230562D01*
X96612046Y-74199123D01*
X96655988Y-74186357D01*
X96655990Y-74186356D01*
X96663601Y-74184145D01*
X96694847Y-74165666D01*
X96799980Y-74103491D01*
X96799983Y-74103489D01*
X96806807Y-74099453D01*
X96869355Y-74036905D01*
X96931667Y-74002879D01*
X96958450Y-74000000D01*
X97441550Y-74000000D01*
X97509671Y-74020002D01*
X97530645Y-74036905D01*
X97593193Y-74099453D01*
X97600017Y-74103489D01*
X97600020Y-74103491D01*
X97705153Y-74165666D01*
X97736399Y-74184145D01*
X97744010Y-74186356D01*
X97744012Y-74186357D01*
X97787954Y-74199123D01*
X97896169Y-74230562D01*
X97902574Y-74231066D01*
X97902579Y-74231067D01*
X97931042Y-74233307D01*
X97931050Y-74233307D01*
X97933498Y-74233500D01*
X98366502Y-74233500D01*
X98368950Y-74233307D01*
X98368958Y-74233307D01*
X98397421Y-74231067D01*
X98397426Y-74231066D01*
X98403831Y-74230562D01*
X98512046Y-74199123D01*
X98555988Y-74186357D01*
X98555990Y-74186356D01*
X98563601Y-74184145D01*
X98594847Y-74165666D01*
X98699980Y-74103491D01*
X98699983Y-74103489D01*
X98706807Y-74099453D01*
X98769355Y-74036905D01*
X98831667Y-74002879D01*
X98858450Y-74000000D01*
X101675280Y-74000000D01*
X101743401Y-74020002D01*
X101789894Y-74073658D01*
X101799998Y-74143932D01*
X101794875Y-74165661D01*
X101776762Y-74220269D01*
X101766500Y-74320428D01*
X101766500Y-74854572D01*
X101777022Y-74955982D01*
X101779206Y-74962529D01*
X101779502Y-74963898D01*
X101774333Y-75034706D01*
X101731703Y-75091479D01*
X101665146Y-75116192D01*
X101656342Y-75116500D01*
X101331417Y-75116500D01*
X101311707Y-75114949D01*
X101304327Y-75113780D01*
X101304326Y-75113780D01*
X101297810Y-75112748D01*
X101291223Y-75113093D01*
X101291218Y-75113093D01*
X101229520Y-75116327D01*
X101222926Y-75116500D01*
X100901268Y-75116500D01*
X100898022Y-75116837D01*
X100898018Y-75116837D01*
X100863917Y-75120375D01*
X100798981Y-75127113D01*
X100792440Y-75129295D01*
X100792441Y-75129295D01*
X100643676Y-75178927D01*
X100643674Y-75178928D01*
X100636732Y-75181244D01*
X100491287Y-75271248D01*
X100370448Y-75392298D01*
X100366608Y-75398528D01*
X100366607Y-75398529D01*
X100285491Y-75530124D01*
X100280698Y-75537899D01*
X100226851Y-75700243D01*
X100216500Y-75801268D01*
X100216500Y-76348732D01*
X100227113Y-76451019D01*
X100229295Y-76457559D01*
X100247275Y-76511450D01*
X100281244Y-76613268D01*
X100285096Y-76619492D01*
X100285096Y-76619493D01*
X100313492Y-76665381D01*
X100371248Y-76758713D01*
X100376430Y-76763886D01*
X100380977Y-76769623D01*
X100379170Y-76771055D01*
X100407902Y-76823575D01*
X100402892Y-76894395D01*
X100379501Y-76930853D01*
X100380552Y-76931683D01*
X100367002Y-76948840D01*
X100284996Y-77081880D01*
X100278849Y-77095061D01*
X100229509Y-77243814D01*
X100226642Y-77257190D01*
X100217328Y-77348097D01*
X100217071Y-77353126D01*
X100221475Y-77368124D01*
X100222865Y-77369329D01*
X100230548Y-77371000D01*
X101328000Y-77371000D01*
X101396121Y-77391002D01*
X101442614Y-77444658D01*
X101454000Y-77497000D01*
X101454000Y-78564885D01*
X101458475Y-78580124D01*
X101459865Y-78581329D01*
X101467548Y-78583000D01*
X101495438Y-78583000D01*
X101501953Y-78582663D01*
X101594057Y-78573106D01*
X101607456Y-78570212D01*
X101756107Y-78520619D01*
X101769285Y-78514445D01*
X101899054Y-78434142D01*
X101967506Y-78415304D01*
X102034068Y-78436088D01*
X102034619Y-78436639D01*
X102040104Y-78439961D01*
X102040107Y-78439963D01*
X102103450Y-78478324D01*
X102181301Y-78525472D01*
X102188548Y-78527743D01*
X102188550Y-78527744D01*
X102245312Y-78545532D01*
X102344938Y-78576753D01*
X102418365Y-78583500D01*
X105978583Y-78583500D01*
X105998292Y-78585051D01*
X106012190Y-78587252D01*
X106018777Y-78586907D01*
X106018782Y-78586907D01*
X106080480Y-78583673D01*
X106087074Y-78583500D01*
X106107610Y-78583500D01*
X106110882Y-78583156D01*
X106110884Y-78583156D01*
X106128042Y-78581353D01*
X106134616Y-78580836D01*
X106196308Y-78577603D01*
X106196312Y-78577602D01*
X106202903Y-78577257D01*
X106209284Y-78575547D01*
X106209286Y-78575547D01*
X106216491Y-78573617D01*
X106235925Y-78570015D01*
X106243354Y-78569234D01*
X106243363Y-78569232D01*
X106249928Y-78568542D01*
X106314997Y-78547400D01*
X106321304Y-78545532D01*
X106368002Y-78533019D01*
X106405229Y-78528810D01*
X106494539Y-78532085D01*
X106616673Y-78536564D01*
X106616677Y-78536564D01*
X106621837Y-78536753D01*
X106626957Y-78536097D01*
X106626959Y-78536097D01*
X106838288Y-78509025D01*
X106838289Y-78509025D01*
X106843416Y-78508368D01*
X106854232Y-78505123D01*
X107052429Y-78445661D01*
X107052434Y-78445659D01*
X107057384Y-78444174D01*
X107257994Y-78345896D01*
X107439860Y-78216173D01*
X107548479Y-78107933D01*
X107610851Y-78074017D01*
X107681658Y-78079205D01*
X107738419Y-78121851D01*
X107755401Y-78152954D01*
X107796676Y-78263054D01*
X107805214Y-78278649D01*
X107881715Y-78380724D01*
X107894276Y-78393285D01*
X107996351Y-78469786D01*
X108011946Y-78478324D01*
X108132394Y-78523478D01*
X108147649Y-78527105D01*
X108198514Y-78532631D01*
X108205328Y-78533000D01*
X108827885Y-78533000D01*
X108843124Y-78528525D01*
X108844329Y-78527135D01*
X108846000Y-78519452D01*
X108846000Y-78514884D01*
X109354000Y-78514884D01*
X109358475Y-78530123D01*
X109359865Y-78531328D01*
X109367548Y-78532999D01*
X109994669Y-78532999D01*
X110001490Y-78532629D01*
X110052352Y-78527105D01*
X110067604Y-78523479D01*
X110188054Y-78478324D01*
X110203649Y-78469786D01*
X110305724Y-78393285D01*
X110318285Y-78380724D01*
X110394786Y-78278649D01*
X110403324Y-78263054D01*
X110448478Y-78142606D01*
X110452105Y-78127351D01*
X110457631Y-78076486D01*
X110458000Y-78069672D01*
X110458000Y-78044669D01*
X111952001Y-78044669D01*
X111952371Y-78051490D01*
X111957895Y-78102352D01*
X111961521Y-78117604D01*
X112006676Y-78238054D01*
X112015214Y-78253649D01*
X112091715Y-78355724D01*
X112104276Y-78368285D01*
X112206351Y-78444786D01*
X112221946Y-78453324D01*
X112342394Y-78498478D01*
X112357649Y-78502105D01*
X112408514Y-78507631D01*
X112415328Y-78508000D01*
X114727885Y-78508000D01*
X114743124Y-78503525D01*
X114744329Y-78502135D01*
X114746000Y-78494452D01*
X114746000Y-77522115D01*
X114741525Y-77506876D01*
X114740135Y-77505671D01*
X114732452Y-77504000D01*
X111970116Y-77504000D01*
X111954877Y-77508475D01*
X111953672Y-77509865D01*
X111952001Y-77517548D01*
X111952001Y-78044669D01*
X110458000Y-78044669D01*
X110458000Y-77447115D01*
X110453525Y-77431876D01*
X110452135Y-77430671D01*
X110444452Y-77429000D01*
X109372115Y-77429000D01*
X109356876Y-77433475D01*
X109355671Y-77434865D01*
X109354000Y-77442548D01*
X109354000Y-78514884D01*
X108846000Y-78514884D01*
X108846000Y-76977885D01*
X111952000Y-76977885D01*
X111956475Y-76993124D01*
X111957865Y-76994329D01*
X111965548Y-76996000D01*
X114727885Y-76996000D01*
X114743124Y-76991525D01*
X114744329Y-76990135D01*
X114746000Y-76982452D01*
X114746000Y-76010116D01*
X114741525Y-75994877D01*
X114740135Y-75993672D01*
X114732452Y-75992001D01*
X112415331Y-75992001D01*
X112408510Y-75992371D01*
X112357648Y-75997895D01*
X112342396Y-76001521D01*
X112221946Y-76046676D01*
X112206351Y-76055214D01*
X112104276Y-76131715D01*
X112091715Y-76144276D01*
X112015214Y-76246351D01*
X112006676Y-76261946D01*
X111961522Y-76382394D01*
X111957895Y-76397649D01*
X111952369Y-76448514D01*
X111952000Y-76455328D01*
X111952000Y-76977885D01*
X108846000Y-76977885D01*
X108846000Y-76902885D01*
X109354000Y-76902885D01*
X109358475Y-76918124D01*
X109359865Y-76919329D01*
X109367548Y-76921000D01*
X110439884Y-76921000D01*
X110455123Y-76916525D01*
X110456328Y-76915135D01*
X110457999Y-76907452D01*
X110457999Y-76280331D01*
X110457629Y-76273510D01*
X110452105Y-76222648D01*
X110448479Y-76207396D01*
X110403324Y-76086946D01*
X110394786Y-76071351D01*
X110318285Y-75969276D01*
X110305724Y-75956715D01*
X110203649Y-75880214D01*
X110188054Y-75871676D01*
X110067606Y-75826522D01*
X110052351Y-75822895D01*
X110001486Y-75817369D01*
X109994672Y-75817000D01*
X109372115Y-75817000D01*
X109356876Y-75821475D01*
X109355671Y-75822865D01*
X109354000Y-75830548D01*
X109354000Y-76902885D01*
X108846000Y-76902885D01*
X108846000Y-75835116D01*
X108841525Y-75819877D01*
X108840135Y-75818672D01*
X108832452Y-75817001D01*
X108205331Y-75817001D01*
X108198510Y-75817371D01*
X108147648Y-75822895D01*
X108132396Y-75826521D01*
X108011946Y-75871676D01*
X107996351Y-75880214D01*
X107894276Y-75956715D01*
X107881715Y-75969276D01*
X107805214Y-76071351D01*
X107796676Y-76086946D01*
X107755297Y-76197322D01*
X107712655Y-76254087D01*
X107646093Y-76278786D01*
X107576744Y-76263578D01*
X107544121Y-76237891D01*
X107493151Y-76181876D01*
X107493148Y-76181873D01*
X107489670Y-76178051D01*
X107485619Y-76174852D01*
X107485615Y-76174848D01*
X107318414Y-76042800D01*
X107318410Y-76042798D01*
X107314359Y-76039598D01*
X107118789Y-75931638D01*
X107113920Y-75929914D01*
X107113916Y-75929912D01*
X106913087Y-75858795D01*
X106913083Y-75858794D01*
X106908212Y-75857069D01*
X106903119Y-75856162D01*
X106903116Y-75856161D01*
X106693373Y-75818800D01*
X106693367Y-75818799D01*
X106688284Y-75817894D01*
X106614452Y-75816992D01*
X106470081Y-75815228D01*
X106470079Y-75815228D01*
X106464911Y-75815165D01*
X106244091Y-75848955D01*
X106031756Y-75918357D01*
X105833607Y-76021507D01*
X105829474Y-76024610D01*
X105829471Y-76024612D01*
X105659100Y-76152530D01*
X105654965Y-76155635D01*
X105500629Y-76317138D01*
X105374743Y-76501680D01*
X105372567Y-76506369D01*
X105372563Y-76506375D01*
X105285680Y-76693550D01*
X105238856Y-76746917D01*
X105171392Y-76766500D01*
X103749013Y-76766500D01*
X103680892Y-76746498D01*
X103634399Y-76692842D01*
X103624295Y-76622568D01*
X103641236Y-76575230D01*
X103671537Y-76525196D01*
X103675472Y-76518699D01*
X103680806Y-76501680D01*
X103718187Y-76382396D01*
X103726753Y-76355062D01*
X103733500Y-76281635D01*
X103733499Y-75768366D01*
X103726753Y-75694938D01*
X103675472Y-75531301D01*
X103671538Y-75524806D01*
X103669662Y-75520650D01*
X103658500Y-75468802D01*
X103658500Y-75165959D01*
X103669528Y-75116212D01*
X103669849Y-75115692D01*
X103696711Y-75034706D01*
X103721072Y-74961262D01*
X103721072Y-74961260D01*
X103723238Y-74954731D01*
X103733500Y-74854572D01*
X103733500Y-74854321D01*
X106367158Y-74854321D01*
X106367337Y-74857782D01*
X106376804Y-74949021D01*
X106379697Y-74962417D01*
X106428830Y-75109687D01*
X106435004Y-75122866D01*
X106516470Y-75254514D01*
X106525506Y-75265915D01*
X106635080Y-75375298D01*
X106646491Y-75384310D01*
X106778291Y-75465553D01*
X106791468Y-75471697D01*
X106938843Y-75520579D01*
X106952210Y-75523445D01*
X107042270Y-75532672D01*
X107048685Y-75533000D01*
X107077885Y-75533000D01*
X107093124Y-75528525D01*
X107094329Y-75527135D01*
X107096000Y-75519452D01*
X107096000Y-75514885D01*
X107604000Y-75514885D01*
X107608475Y-75530124D01*
X107609865Y-75531329D01*
X107617548Y-75533000D01*
X107651266Y-75533000D01*
X107657782Y-75532663D01*
X107749021Y-75523196D01*
X107762417Y-75520303D01*
X107909687Y-75471170D01*
X107922866Y-75464996D01*
X108054514Y-75383530D01*
X108065915Y-75374494D01*
X108175298Y-75264920D01*
X108184310Y-75253509D01*
X108265553Y-75121709D01*
X108271697Y-75108532D01*
X108320579Y-74961157D01*
X108323445Y-74947790D01*
X108332614Y-74858300D01*
X108328525Y-74844376D01*
X108327135Y-74843171D01*
X108319452Y-74841500D01*
X107622115Y-74841500D01*
X107606876Y-74845975D01*
X107605671Y-74847365D01*
X107604000Y-74855048D01*
X107604000Y-75514885D01*
X107096000Y-75514885D01*
X107096000Y-74859615D01*
X107091525Y-74844376D01*
X107090135Y-74843171D01*
X107082452Y-74841500D01*
X106385115Y-74841500D01*
X106369876Y-74845975D01*
X106368671Y-74847365D01*
X106367158Y-74854321D01*
X103733500Y-74854321D01*
X103733500Y-74320428D01*
X103732827Y-74313936D01*
X103728256Y-74269886D01*
X103722978Y-74219018D01*
X103705248Y-74165875D01*
X103702664Y-74094926D01*
X103738848Y-74033842D01*
X103802312Y-74002018D01*
X103824772Y-74000000D01*
X106275807Y-74000000D01*
X106343928Y-74020002D01*
X106390421Y-74073658D01*
X106400525Y-74143932D01*
X106395400Y-74165666D01*
X106379422Y-74213840D01*
X106376555Y-74227210D01*
X106367386Y-74316700D01*
X106371475Y-74330624D01*
X106372865Y-74331829D01*
X106380548Y-74333500D01*
X108314885Y-74333500D01*
X108330124Y-74329025D01*
X108331329Y-74327635D01*
X108332842Y-74320679D01*
X108332663Y-74317218D01*
X108323196Y-74225979D01*
X108320303Y-74212583D01*
X108304720Y-74165876D01*
X108302136Y-74094927D01*
X108338319Y-74033843D01*
X108401784Y-74002018D01*
X108424244Y-74000000D01*
X111948827Y-74000000D01*
X112016948Y-74020002D01*
X112049651Y-74050432D01*
X112096739Y-74113261D01*
X112213295Y-74200615D01*
X112349684Y-74251745D01*
X112411866Y-74258500D01*
X117016000Y-74258500D01*
X117084121Y-74278502D01*
X117130614Y-74332158D01*
X117142000Y-74384500D01*
X117142000Y-75866000D01*
X117121998Y-75934121D01*
X117068342Y-75980614D01*
X117016000Y-75992000D01*
X115272115Y-75992000D01*
X115256876Y-75996475D01*
X115255671Y-75997865D01*
X115254000Y-76005548D01*
X115254000Y-78489884D01*
X115258475Y-78505123D01*
X115259865Y-78506328D01*
X115267548Y-78507999D01*
X117016000Y-78507999D01*
X117084121Y-78528001D01*
X117130614Y-78581657D01*
X117142000Y-78633999D01*
X117142000Y-79116000D01*
X117121998Y-79184121D01*
X117068342Y-79230614D01*
X117016000Y-79242000D01*
X84984000Y-79242000D01*
X84915879Y-79221998D01*
X84869386Y-79168342D01*
X84858000Y-79116000D01*
X84858000Y-78634000D01*
X84878002Y-78565879D01*
X84931658Y-78519386D01*
X84984000Y-78508000D01*
X86740385Y-78508000D01*
X86755624Y-78503525D01*
X86756829Y-78502135D01*
X86758500Y-78494452D01*
X86758500Y-78489884D01*
X87266500Y-78489884D01*
X87270975Y-78505123D01*
X87272365Y-78506328D01*
X87280048Y-78507999D01*
X89597169Y-78507999D01*
X89603990Y-78507629D01*
X89654852Y-78502105D01*
X89670104Y-78498479D01*
X89790554Y-78453324D01*
X89806149Y-78444786D01*
X89908224Y-78368285D01*
X89920785Y-78355724D01*
X89997286Y-78253649D01*
X90005824Y-78238054D01*
X90050978Y-78117606D01*
X90054605Y-78102351D01*
X90060131Y-78051486D01*
X90060500Y-78044672D01*
X90060500Y-77895438D01*
X92117000Y-77895438D01*
X92117337Y-77901953D01*
X92126894Y-77994057D01*
X92129788Y-78007456D01*
X92179381Y-78156107D01*
X92185555Y-78169286D01*
X92267788Y-78302173D01*
X92276824Y-78313574D01*
X92387429Y-78423986D01*
X92398840Y-78432998D01*
X92531880Y-78515004D01*
X92545061Y-78521151D01*
X92693814Y-78570491D01*
X92707190Y-78573358D01*
X92798097Y-78582672D01*
X92804513Y-78583000D01*
X92827885Y-78583000D01*
X92843124Y-78578525D01*
X92844329Y-78577135D01*
X92846000Y-78569452D01*
X92846000Y-78564885D01*
X93354000Y-78564885D01*
X93358475Y-78580124D01*
X93359865Y-78581329D01*
X93367548Y-78583000D01*
X93395438Y-78583000D01*
X93401953Y-78582663D01*
X93494057Y-78573106D01*
X93507456Y-78570212D01*
X93656107Y-78520619D01*
X93669286Y-78514445D01*
X93802173Y-78432212D01*
X93813901Y-78422917D01*
X93879712Y-78396282D01*
X93949476Y-78409454D01*
X93973184Y-78426697D01*
X93973585Y-78426186D01*
X93991426Y-78440176D01*
X94125012Y-78521079D01*
X94138757Y-78527285D01*
X94288644Y-78574256D01*
X94301694Y-78576869D01*
X94365521Y-78582734D01*
X94371309Y-78583000D01*
X94427885Y-78583000D01*
X94443124Y-78578525D01*
X94444329Y-78577135D01*
X94446000Y-78569452D01*
X94446000Y-78564884D01*
X94954000Y-78564884D01*
X94958475Y-78580123D01*
X94959865Y-78581328D01*
X94967548Y-78582999D01*
X95028705Y-78582999D01*
X95034454Y-78582736D01*
X95098315Y-78576868D01*
X95111351Y-78574257D01*
X95261243Y-78527285D01*
X95274988Y-78521079D01*
X95408574Y-78440176D01*
X95420443Y-78430869D01*
X95530869Y-78320443D01*
X95540176Y-78308574D01*
X95621079Y-78174988D01*
X95627285Y-78161243D01*
X95674256Y-78011356D01*
X95676869Y-77998306D01*
X95681913Y-77943414D01*
X95678525Y-77931876D01*
X95677135Y-77930671D01*
X95669452Y-77929000D01*
X94972115Y-77929000D01*
X94956876Y-77933475D01*
X94955671Y-77934865D01*
X94954000Y-77942548D01*
X94954000Y-78564884D01*
X94446000Y-78564884D01*
X94446000Y-77947115D01*
X94441525Y-77931876D01*
X94440135Y-77930671D01*
X94432452Y-77929000D01*
X93773905Y-77929000D01*
X93705784Y-77908998D01*
X93691393Y-77898225D01*
X93688177Y-77895438D01*
X100217000Y-77895438D01*
X100217337Y-77901953D01*
X100226894Y-77994057D01*
X100229788Y-78007456D01*
X100279381Y-78156107D01*
X100285555Y-78169286D01*
X100367788Y-78302173D01*
X100376824Y-78313574D01*
X100487429Y-78423986D01*
X100498840Y-78432998D01*
X100631880Y-78515004D01*
X100645061Y-78521151D01*
X100793814Y-78570491D01*
X100807190Y-78573358D01*
X100898097Y-78582672D01*
X100904513Y-78583000D01*
X100927885Y-78583000D01*
X100943124Y-78578525D01*
X100944329Y-78577135D01*
X100946000Y-78569452D01*
X100946000Y-77897115D01*
X100941525Y-77881876D01*
X100940135Y-77880671D01*
X100932452Y-77879000D01*
X100235115Y-77879000D01*
X100219876Y-77883475D01*
X100218671Y-77884865D01*
X100217000Y-77892548D01*
X100217000Y-77895438D01*
X93688177Y-77895438D01*
X93671135Y-77880671D01*
X93663452Y-77879000D01*
X93372115Y-77879000D01*
X93356876Y-77883475D01*
X93355671Y-77884865D01*
X93354000Y-77892548D01*
X93354000Y-78564885D01*
X92846000Y-78564885D01*
X92846000Y-77897115D01*
X92841525Y-77881876D01*
X92840135Y-77880671D01*
X92832452Y-77879000D01*
X92135115Y-77879000D01*
X92119876Y-77883475D01*
X92118671Y-77884865D01*
X92117000Y-77892548D01*
X92117000Y-77895438D01*
X90060500Y-77895438D01*
X90060500Y-77522115D01*
X90056025Y-77506876D01*
X90054635Y-77505671D01*
X90046952Y-77504000D01*
X87284615Y-77504000D01*
X87269376Y-77508475D01*
X87268171Y-77509865D01*
X87266500Y-77517548D01*
X87266500Y-78489884D01*
X86758500Y-78489884D01*
X86758500Y-76977885D01*
X87266500Y-76977885D01*
X87270975Y-76993124D01*
X87272365Y-76994329D01*
X87280048Y-76996000D01*
X90042384Y-76996000D01*
X90057623Y-76991525D01*
X90058828Y-76990135D01*
X90060499Y-76982452D01*
X90060499Y-76455331D01*
X90060129Y-76448510D01*
X90054605Y-76397648D01*
X90050979Y-76382396D01*
X90005824Y-76261946D01*
X89997286Y-76246351D01*
X89920785Y-76144276D01*
X89908224Y-76131715D01*
X89806149Y-76055214D01*
X89790554Y-76046676D01*
X89670106Y-76001522D01*
X89654851Y-75997895D01*
X89603986Y-75992369D01*
X89597172Y-75992000D01*
X87284615Y-75992000D01*
X87269376Y-75996475D01*
X87268171Y-75997865D01*
X87266500Y-76005548D01*
X87266500Y-76977885D01*
X86758500Y-76977885D01*
X86758500Y-76010116D01*
X86754025Y-75994877D01*
X86752635Y-75993672D01*
X86744952Y-75992001D01*
X84984000Y-75992001D01*
X84915879Y-75971999D01*
X84869386Y-75918343D01*
X84858000Y-75866001D01*
X84858000Y-74384500D01*
X84878002Y-74316379D01*
X84931658Y-74269886D01*
X84984000Y-74258500D01*
X89600634Y-74258500D01*
X89662816Y-74251745D01*
X89799205Y-74200615D01*
X89915761Y-74113261D01*
X89962848Y-74050433D01*
X90019707Y-74007920D01*
X90063673Y-74000000D01*
X93625280Y-74000000D01*
X93693401Y-74020002D01*
G37*
%TD.AperFunction*%
%TA.AperFunction,Conductor*%
G36*
X117084121Y-66778002D02*
G01*
X117130614Y-66831658D01*
X117142000Y-66884000D01*
X117142000Y-67366000D01*
X117121998Y-67434121D01*
X117068342Y-67480614D01*
X117016000Y-67492000D01*
X115272115Y-67492000D01*
X115256876Y-67496475D01*
X115255671Y-67497865D01*
X115254000Y-67505548D01*
X115254000Y-69989884D01*
X115258475Y-70005123D01*
X115259865Y-70006328D01*
X115267548Y-70007999D01*
X117016000Y-70007999D01*
X117084121Y-70028001D01*
X117130614Y-70081657D01*
X117142000Y-70133999D01*
X117142000Y-71615500D01*
X117121998Y-71683621D01*
X117068342Y-71730114D01*
X117016000Y-71741500D01*
X112411866Y-71741500D01*
X112349684Y-71748255D01*
X112213295Y-71799385D01*
X112096739Y-71886739D01*
X112049652Y-71949567D01*
X111992793Y-71992080D01*
X111948827Y-72000000D01*
X98883450Y-72000000D01*
X98815329Y-71979998D01*
X98794355Y-71963095D01*
X98706807Y-71875547D01*
X98699983Y-71871511D01*
X98699980Y-71871509D01*
X98570427Y-71794892D01*
X98570428Y-71794892D01*
X98563601Y-71790855D01*
X98555990Y-71788644D01*
X98555988Y-71788643D01*
X98503769Y-71773472D01*
X98403831Y-71744438D01*
X98397426Y-71743934D01*
X98397421Y-71743933D01*
X98368958Y-71741693D01*
X98368950Y-71741693D01*
X98366502Y-71741500D01*
X98134000Y-71741500D01*
X98065879Y-71721498D01*
X98019386Y-71667842D01*
X98008000Y-71615500D01*
X98008000Y-71384615D01*
X98003525Y-71369376D01*
X98002135Y-71368171D01*
X97994452Y-71366500D01*
X96410116Y-71366500D01*
X96394877Y-71370975D01*
X96393672Y-71372365D01*
X96392001Y-71380048D01*
X96392001Y-71615500D01*
X96371999Y-71683621D01*
X96318343Y-71730114D01*
X96266001Y-71741500D01*
X96033498Y-71741500D01*
X96031050Y-71741693D01*
X96031042Y-71741693D01*
X96002579Y-71743933D01*
X96002574Y-71743934D01*
X95996169Y-71744438D01*
X95896231Y-71773472D01*
X95844012Y-71788643D01*
X95844010Y-71788644D01*
X95836399Y-71790855D01*
X95829572Y-71794892D01*
X95829573Y-71794892D01*
X95700020Y-71871509D01*
X95700017Y-71871511D01*
X95693193Y-71875547D01*
X95605645Y-71963095D01*
X95543333Y-71997121D01*
X95516550Y-72000000D01*
X90063673Y-72000000D01*
X89995552Y-71979998D01*
X89962849Y-71949568D01*
X89915761Y-71886739D01*
X89799205Y-71799385D01*
X89662816Y-71748255D01*
X89600634Y-71741500D01*
X84984000Y-71741500D01*
X84915879Y-71721498D01*
X84869386Y-71667842D01*
X84858000Y-71615500D01*
X84858000Y-70840385D01*
X96392000Y-70840385D01*
X96396475Y-70855624D01*
X96397865Y-70856829D01*
X96405548Y-70858500D01*
X96927885Y-70858500D01*
X96943124Y-70854025D01*
X96944329Y-70852635D01*
X96946000Y-70844952D01*
X96946000Y-70840385D01*
X97454000Y-70840385D01*
X97458475Y-70855624D01*
X97459865Y-70856829D01*
X97467548Y-70858500D01*
X97989884Y-70858500D01*
X98005123Y-70854025D01*
X98006328Y-70852635D01*
X98007999Y-70844952D01*
X98007999Y-70461017D01*
X98007805Y-70456080D01*
X98005570Y-70427664D01*
X98003270Y-70415069D01*
X97960893Y-70269210D01*
X97954648Y-70254779D01*
X97878089Y-70125322D01*
X97868449Y-70112896D01*
X97762104Y-70006551D01*
X97749678Y-69996911D01*
X97620221Y-69920352D01*
X97605790Y-69914107D01*
X97471395Y-69875061D01*
X97457294Y-69875101D01*
X97454000Y-69882370D01*
X97454000Y-70840385D01*
X96946000Y-70840385D01*
X96946000Y-69888122D01*
X96942027Y-69874591D01*
X96934129Y-69873456D01*
X96794210Y-69914107D01*
X96779779Y-69920352D01*
X96650322Y-69996911D01*
X96637896Y-70006551D01*
X96531551Y-70112896D01*
X96521911Y-70125322D01*
X96445352Y-70254779D01*
X96439107Y-70269210D01*
X96396731Y-70415065D01*
X96394430Y-70427667D01*
X96392193Y-70456084D01*
X96392000Y-70461014D01*
X96392000Y-70840385D01*
X84858000Y-70840385D01*
X84858000Y-70134000D01*
X84878002Y-70065879D01*
X84931658Y-70019386D01*
X84984000Y-70008000D01*
X86740385Y-70008000D01*
X86755624Y-70003525D01*
X86756829Y-70002135D01*
X86758500Y-69994452D01*
X86758500Y-69989884D01*
X87266500Y-69989884D01*
X87270975Y-70005123D01*
X87272365Y-70006328D01*
X87280048Y-70007999D01*
X89597169Y-70007999D01*
X89603990Y-70007629D01*
X89654852Y-70002105D01*
X89670104Y-69998479D01*
X89790554Y-69953324D01*
X89806149Y-69944786D01*
X89908224Y-69868285D01*
X89920785Y-69855724D01*
X89997286Y-69753649D01*
X90005824Y-69738054D01*
X90050978Y-69617606D01*
X90054605Y-69602351D01*
X90060131Y-69551486D01*
X90060500Y-69544672D01*
X90060500Y-69544669D01*
X111952001Y-69544669D01*
X111952371Y-69551490D01*
X111957895Y-69602352D01*
X111961521Y-69617604D01*
X112006676Y-69738054D01*
X112015214Y-69753649D01*
X112091715Y-69855724D01*
X112104276Y-69868285D01*
X112206351Y-69944786D01*
X112221946Y-69953324D01*
X112342394Y-69998478D01*
X112357649Y-70002105D01*
X112408514Y-70007631D01*
X112415328Y-70008000D01*
X114727885Y-70008000D01*
X114743124Y-70003525D01*
X114744329Y-70002135D01*
X114746000Y-69994452D01*
X114746000Y-69022115D01*
X114741525Y-69006876D01*
X114740135Y-69005671D01*
X114732452Y-69004000D01*
X111970116Y-69004000D01*
X111954877Y-69008475D01*
X111953672Y-69009865D01*
X111952001Y-69017548D01*
X111952001Y-69544669D01*
X90060500Y-69544669D01*
X90060500Y-69022115D01*
X90056025Y-69006876D01*
X90054635Y-69005671D01*
X90046952Y-69004000D01*
X87284615Y-69004000D01*
X87269376Y-69008475D01*
X87268171Y-69009865D01*
X87266500Y-69017548D01*
X87266500Y-69989884D01*
X86758500Y-69989884D01*
X86758500Y-68477885D01*
X87266500Y-68477885D01*
X87270975Y-68493124D01*
X87272365Y-68494329D01*
X87280048Y-68496000D01*
X90042384Y-68496000D01*
X90057623Y-68491525D01*
X90058828Y-68490135D01*
X90060499Y-68482452D01*
X90060499Y-68477885D01*
X111952000Y-68477885D01*
X111956475Y-68493124D01*
X111957865Y-68494329D01*
X111965548Y-68496000D01*
X114727885Y-68496000D01*
X114743124Y-68491525D01*
X114744329Y-68490135D01*
X114746000Y-68482452D01*
X114746000Y-67510116D01*
X114741525Y-67494877D01*
X114740135Y-67493672D01*
X114732452Y-67492001D01*
X112415331Y-67492001D01*
X112408510Y-67492371D01*
X112357648Y-67497895D01*
X112342396Y-67501521D01*
X112221946Y-67546676D01*
X112206351Y-67555214D01*
X112104276Y-67631715D01*
X112091715Y-67644276D01*
X112015214Y-67746351D01*
X112006676Y-67761946D01*
X111961522Y-67882394D01*
X111957895Y-67897649D01*
X111952369Y-67948514D01*
X111952000Y-67955328D01*
X111952000Y-68477885D01*
X90060499Y-68477885D01*
X90060499Y-67955331D01*
X90060129Y-67948510D01*
X90054605Y-67897648D01*
X90050979Y-67882396D01*
X90005824Y-67761946D01*
X89997286Y-67746351D01*
X89920785Y-67644276D01*
X89908224Y-67631715D01*
X89806149Y-67555214D01*
X89790554Y-67546676D01*
X89670106Y-67501522D01*
X89654851Y-67497895D01*
X89603986Y-67492369D01*
X89597172Y-67492000D01*
X87284615Y-67492000D01*
X87269376Y-67496475D01*
X87268171Y-67497865D01*
X87266500Y-67505548D01*
X87266500Y-68477885D01*
X86758500Y-68477885D01*
X86758500Y-67510116D01*
X86754025Y-67494877D01*
X86752635Y-67493672D01*
X86744952Y-67492001D01*
X84984000Y-67492001D01*
X84915879Y-67471999D01*
X84869386Y-67418343D01*
X84858000Y-67366001D01*
X84858000Y-66884000D01*
X84878002Y-66815879D01*
X84931658Y-66769386D01*
X84984000Y-66758000D01*
X117016000Y-66758000D01*
X117084121Y-66778002D01*
G37*
%TD.AperFunction*%
M02*
