%TF.GenerationSoftware,KiCad,Pcbnew,(6.0.1)*%
%TF.CreationDate,2022-03-08T09:49:56-08:00*%
%TF.ProjectId,436.5MHz LNA,3433362e-354d-4487-9a20-4c4e412e6b69,rev?*%
%TF.SameCoordinates,Original*%
%TF.FileFunction,Copper,L2,Bot*%
%TF.FilePolarity,Positive*%
%FSLAX46Y46*%
G04 Gerber Fmt 4.6, Leading zero omitted, Abs format (unit mm)*
G04 Created by KiCad (PCBNEW (6.0.1)) date 2022-03-08 09:49:56*
%MOMM*%
%LPD*%
G01*
G04 APERTURE LIST*
%TA.AperFunction,SMDPad,CuDef*%
%ADD10R,5.080000X1.500000*%
%TD*%
%TA.AperFunction,ComponentPad*%
%ADD11R,1.700000X1.700000*%
%TD*%
%TA.AperFunction,ComponentPad*%
%ADD12O,1.700000X1.700000*%
%TD*%
%TA.AperFunction,ViaPad*%
%ADD13C,0.800000*%
%TD*%
G04 APERTURE END LIST*
D10*
X115000000Y-77250000D03*
X115000000Y-68750000D03*
X87012500Y-68750000D03*
X87012500Y-77250000D03*
D11*
X109100000Y-77175000D03*
D12*
X106560000Y-77175000D03*
D13*
X85250000Y-67250000D03*
X99250000Y-67250000D03*
X113250000Y-70250000D03*
X106300000Y-74450000D03*
X111500000Y-68750000D03*
X111550000Y-75750000D03*
X99300000Y-78750000D03*
X115050000Y-78750000D03*
X116800000Y-78750000D03*
X113250000Y-71550000D03*
X88750000Y-78750000D03*
X92300000Y-74450000D03*
X116750000Y-70250000D03*
X85250000Y-70250000D03*
X95800000Y-78750000D03*
X90500000Y-78750000D03*
X113300000Y-78750000D03*
X88750000Y-71550000D03*
X106250000Y-71550000D03*
X88800000Y-74450000D03*
X102750000Y-67250000D03*
X90500000Y-67250000D03*
X115000000Y-70250000D03*
X92250000Y-71550000D03*
X92250000Y-67250000D03*
X87000000Y-70250000D03*
X102750000Y-71550000D03*
X90500000Y-70250000D03*
X87000000Y-75750000D03*
X115050000Y-75750000D03*
X111500000Y-70250000D03*
X98200000Y-69700000D03*
X99300000Y-74450000D03*
X85250000Y-78750000D03*
X95800000Y-74450000D03*
X85250000Y-71550000D03*
X99250000Y-71550000D03*
X95750000Y-71550000D03*
X102800000Y-78750000D03*
X90500000Y-68750000D03*
X115000000Y-67250000D03*
X113300000Y-74450000D03*
X111550000Y-78750000D03*
X90500000Y-75750000D03*
X109800000Y-74450000D03*
X90500000Y-77250000D03*
X87000000Y-78750000D03*
X106250000Y-67250000D03*
X88750000Y-75750000D03*
X85250000Y-75750000D03*
X116750000Y-67250000D03*
X87000000Y-67250000D03*
X116800000Y-75750000D03*
X113250000Y-67250000D03*
X95750000Y-67250000D03*
X92300000Y-78750000D03*
X111550000Y-77250000D03*
X85300000Y-74450000D03*
X111500000Y-67250000D03*
X106300000Y-78750000D03*
X109800000Y-78750000D03*
X116800000Y-74450000D03*
X96200000Y-69700000D03*
X109750000Y-67250000D03*
X88750000Y-70250000D03*
X109750000Y-71550000D03*
X113300000Y-75750000D03*
X116750000Y-71550000D03*
X88750000Y-67250000D03*
X97200000Y-69700000D03*
%TA.AperFunction,Conductor*%
G36*
X117084121Y-66778002D02*
G01*
X117130614Y-66831658D01*
X117142000Y-66884000D01*
X117142000Y-67366000D01*
X117121998Y-67434121D01*
X117068342Y-67480614D01*
X117016000Y-67492000D01*
X115272115Y-67492000D01*
X115256876Y-67496475D01*
X115255671Y-67497865D01*
X115254000Y-67505548D01*
X115254000Y-69989884D01*
X115258475Y-70005123D01*
X115259865Y-70006328D01*
X115267548Y-70007999D01*
X117016000Y-70007999D01*
X117084121Y-70028001D01*
X117130614Y-70081657D01*
X117142000Y-70133999D01*
X117142000Y-75866000D01*
X117121998Y-75934121D01*
X117068342Y-75980614D01*
X117016000Y-75992000D01*
X115272115Y-75992000D01*
X115256876Y-75996475D01*
X115255671Y-75997865D01*
X115254000Y-76005548D01*
X115254000Y-78489884D01*
X115258475Y-78505123D01*
X115259865Y-78506328D01*
X115267548Y-78507999D01*
X117016000Y-78507999D01*
X117084121Y-78528001D01*
X117130614Y-78581657D01*
X117142000Y-78633999D01*
X117142000Y-79116000D01*
X117121998Y-79184121D01*
X117068342Y-79230614D01*
X117016000Y-79242000D01*
X84984000Y-79242000D01*
X84915879Y-79221998D01*
X84869386Y-79168342D01*
X84858000Y-79116000D01*
X84858000Y-78634000D01*
X84878002Y-78565879D01*
X84931658Y-78519386D01*
X84984000Y-78508000D01*
X86740385Y-78508000D01*
X86755624Y-78503525D01*
X86756829Y-78502135D01*
X86758500Y-78494452D01*
X86758500Y-78489884D01*
X87266500Y-78489884D01*
X87270975Y-78505123D01*
X87272365Y-78506328D01*
X87280048Y-78507999D01*
X89597169Y-78507999D01*
X89603990Y-78507629D01*
X89654852Y-78502105D01*
X89670104Y-78498479D01*
X89790554Y-78453324D01*
X89806149Y-78444786D01*
X89908224Y-78368285D01*
X89920785Y-78355724D01*
X89997286Y-78253649D01*
X90005824Y-78238054D01*
X90050978Y-78117606D01*
X90054605Y-78102351D01*
X90060131Y-78051486D01*
X90060500Y-78044672D01*
X90060500Y-77522115D01*
X90056025Y-77506876D01*
X90054635Y-77505671D01*
X90046952Y-77504000D01*
X87284615Y-77504000D01*
X87269376Y-77508475D01*
X87268171Y-77509865D01*
X87266500Y-77517548D01*
X87266500Y-78489884D01*
X86758500Y-78489884D01*
X86758500Y-77141695D01*
X105197251Y-77141695D01*
X105210110Y-77364715D01*
X105211247Y-77369761D01*
X105211248Y-77369767D01*
X105225606Y-77433475D01*
X105259222Y-77582639D01*
X105343266Y-77789616D01*
X105459987Y-77980088D01*
X105606250Y-78148938D01*
X105778126Y-78291632D01*
X105971000Y-78404338D01*
X106179692Y-78484030D01*
X106184760Y-78485061D01*
X106184763Y-78485062D01*
X106268533Y-78502105D01*
X106398597Y-78528567D01*
X106403772Y-78528757D01*
X106403774Y-78528757D01*
X106616673Y-78536564D01*
X106616677Y-78536564D01*
X106621837Y-78536753D01*
X106626957Y-78536097D01*
X106626959Y-78536097D01*
X106838288Y-78509025D01*
X106838289Y-78509025D01*
X106843416Y-78508368D01*
X106854232Y-78505123D01*
X107052429Y-78445661D01*
X107052434Y-78445659D01*
X107057384Y-78444174D01*
X107257994Y-78345896D01*
X107439860Y-78216173D01*
X107507331Y-78148938D01*
X107548479Y-78107933D01*
X107610851Y-78074017D01*
X107681658Y-78079205D01*
X107738419Y-78121851D01*
X107755401Y-78152954D01*
X107796676Y-78263054D01*
X107805214Y-78278649D01*
X107881715Y-78380724D01*
X107894276Y-78393285D01*
X107996351Y-78469786D01*
X108011946Y-78478324D01*
X108132394Y-78523478D01*
X108147649Y-78527105D01*
X108198514Y-78532631D01*
X108205328Y-78533000D01*
X108827885Y-78533000D01*
X108843124Y-78528525D01*
X108844329Y-78527135D01*
X108846000Y-78519452D01*
X108846000Y-78514884D01*
X109354000Y-78514884D01*
X109358475Y-78530123D01*
X109359865Y-78531328D01*
X109367548Y-78532999D01*
X109994669Y-78532999D01*
X110001490Y-78532629D01*
X110052352Y-78527105D01*
X110067604Y-78523479D01*
X110188054Y-78478324D01*
X110203649Y-78469786D01*
X110305724Y-78393285D01*
X110318285Y-78380724D01*
X110394786Y-78278649D01*
X110403324Y-78263054D01*
X110448478Y-78142606D01*
X110452105Y-78127351D01*
X110457631Y-78076486D01*
X110458000Y-78069672D01*
X110458000Y-78044669D01*
X111952001Y-78044669D01*
X111952371Y-78051490D01*
X111957895Y-78102352D01*
X111961521Y-78117604D01*
X112006676Y-78238054D01*
X112015214Y-78253649D01*
X112091715Y-78355724D01*
X112104276Y-78368285D01*
X112206351Y-78444786D01*
X112221946Y-78453324D01*
X112342394Y-78498478D01*
X112357649Y-78502105D01*
X112408514Y-78507631D01*
X112415328Y-78508000D01*
X114727885Y-78508000D01*
X114743124Y-78503525D01*
X114744329Y-78502135D01*
X114746000Y-78494452D01*
X114746000Y-77522115D01*
X114741525Y-77506876D01*
X114740135Y-77505671D01*
X114732452Y-77504000D01*
X111970116Y-77504000D01*
X111954877Y-77508475D01*
X111953672Y-77509865D01*
X111952001Y-77517548D01*
X111952001Y-78044669D01*
X110458000Y-78044669D01*
X110458000Y-77447115D01*
X110453525Y-77431876D01*
X110452135Y-77430671D01*
X110444452Y-77429000D01*
X109372115Y-77429000D01*
X109356876Y-77433475D01*
X109355671Y-77434865D01*
X109354000Y-77442548D01*
X109354000Y-78514884D01*
X108846000Y-78514884D01*
X108846000Y-76977885D01*
X111952000Y-76977885D01*
X111956475Y-76993124D01*
X111957865Y-76994329D01*
X111965548Y-76996000D01*
X114727885Y-76996000D01*
X114743124Y-76991525D01*
X114744329Y-76990135D01*
X114746000Y-76982452D01*
X114746000Y-76010116D01*
X114741525Y-75994877D01*
X114740135Y-75993672D01*
X114732452Y-75992001D01*
X112415331Y-75992001D01*
X112408510Y-75992371D01*
X112357648Y-75997895D01*
X112342396Y-76001521D01*
X112221946Y-76046676D01*
X112206351Y-76055214D01*
X112104276Y-76131715D01*
X112091715Y-76144276D01*
X112015214Y-76246351D01*
X112006676Y-76261946D01*
X111961522Y-76382394D01*
X111957895Y-76397649D01*
X111952369Y-76448514D01*
X111952000Y-76455328D01*
X111952000Y-76977885D01*
X108846000Y-76977885D01*
X108846000Y-76902885D01*
X109354000Y-76902885D01*
X109358475Y-76918124D01*
X109359865Y-76919329D01*
X109367548Y-76921000D01*
X110439884Y-76921000D01*
X110455123Y-76916525D01*
X110456328Y-76915135D01*
X110457999Y-76907452D01*
X110457999Y-76280331D01*
X110457629Y-76273510D01*
X110452105Y-76222648D01*
X110448479Y-76207396D01*
X110403324Y-76086946D01*
X110394786Y-76071351D01*
X110318285Y-75969276D01*
X110305724Y-75956715D01*
X110203649Y-75880214D01*
X110188054Y-75871676D01*
X110067606Y-75826522D01*
X110052351Y-75822895D01*
X110001486Y-75817369D01*
X109994672Y-75817000D01*
X109372115Y-75817000D01*
X109356876Y-75821475D01*
X109355671Y-75822865D01*
X109354000Y-75830548D01*
X109354000Y-76902885D01*
X108846000Y-76902885D01*
X108846000Y-75835116D01*
X108841525Y-75819877D01*
X108840135Y-75818672D01*
X108832452Y-75817001D01*
X108205331Y-75817001D01*
X108198510Y-75817371D01*
X108147648Y-75822895D01*
X108132396Y-75826521D01*
X108011946Y-75871676D01*
X107996351Y-75880214D01*
X107894276Y-75956715D01*
X107881715Y-75969276D01*
X107805214Y-76071351D01*
X107796676Y-76086946D01*
X107755297Y-76197322D01*
X107712655Y-76254087D01*
X107646093Y-76278786D01*
X107576744Y-76263578D01*
X107544121Y-76237891D01*
X107493151Y-76181876D01*
X107493148Y-76181873D01*
X107489670Y-76178051D01*
X107485619Y-76174852D01*
X107485615Y-76174848D01*
X107318414Y-76042800D01*
X107318410Y-76042798D01*
X107314359Y-76039598D01*
X107118789Y-75931638D01*
X107113920Y-75929914D01*
X107113916Y-75929912D01*
X106913087Y-75858795D01*
X106913083Y-75858794D01*
X106908212Y-75857069D01*
X106903119Y-75856162D01*
X106903116Y-75856161D01*
X106693373Y-75818800D01*
X106693367Y-75818799D01*
X106688284Y-75817894D01*
X106614452Y-75816992D01*
X106470081Y-75815228D01*
X106470079Y-75815228D01*
X106464911Y-75815165D01*
X106244091Y-75848955D01*
X106031756Y-75918357D01*
X105833607Y-76021507D01*
X105829474Y-76024610D01*
X105829471Y-76024612D01*
X105659100Y-76152530D01*
X105654965Y-76155635D01*
X105500629Y-76317138D01*
X105374743Y-76501680D01*
X105280688Y-76704305D01*
X105220989Y-76919570D01*
X105197251Y-77141695D01*
X86758500Y-77141695D01*
X86758500Y-76977885D01*
X87266500Y-76977885D01*
X87270975Y-76993124D01*
X87272365Y-76994329D01*
X87280048Y-76996000D01*
X90042384Y-76996000D01*
X90057623Y-76991525D01*
X90058828Y-76990135D01*
X90060499Y-76982452D01*
X90060499Y-76455331D01*
X90060129Y-76448510D01*
X90054605Y-76397648D01*
X90050979Y-76382396D01*
X90005824Y-76261946D01*
X89997286Y-76246351D01*
X89920785Y-76144276D01*
X89908224Y-76131715D01*
X89806149Y-76055214D01*
X89790554Y-76046676D01*
X89670106Y-76001522D01*
X89654851Y-75997895D01*
X89603986Y-75992369D01*
X89597172Y-75992000D01*
X87284615Y-75992000D01*
X87269376Y-75996475D01*
X87268171Y-75997865D01*
X87266500Y-76005548D01*
X87266500Y-76977885D01*
X86758500Y-76977885D01*
X86758500Y-76010116D01*
X86754025Y-75994877D01*
X86752635Y-75993672D01*
X86744952Y-75992001D01*
X84984000Y-75992001D01*
X84915879Y-75971999D01*
X84869386Y-75918343D01*
X84858000Y-75866001D01*
X84858000Y-70134000D01*
X84878002Y-70065879D01*
X84931658Y-70019386D01*
X84984000Y-70008000D01*
X86740385Y-70008000D01*
X86755624Y-70003525D01*
X86756829Y-70002135D01*
X86758500Y-69994452D01*
X86758500Y-69989884D01*
X87266500Y-69989884D01*
X87270975Y-70005123D01*
X87272365Y-70006328D01*
X87280048Y-70007999D01*
X89597169Y-70007999D01*
X89603990Y-70007629D01*
X89654852Y-70002105D01*
X89670104Y-69998479D01*
X89790554Y-69953324D01*
X89806149Y-69944786D01*
X89908224Y-69868285D01*
X89920785Y-69855724D01*
X89997286Y-69753649D01*
X90005824Y-69738054D01*
X90050978Y-69617606D01*
X90054605Y-69602351D01*
X90060131Y-69551486D01*
X90060500Y-69544672D01*
X90060500Y-69544669D01*
X111952001Y-69544669D01*
X111952371Y-69551490D01*
X111957895Y-69602352D01*
X111961521Y-69617604D01*
X112006676Y-69738054D01*
X112015214Y-69753649D01*
X112091715Y-69855724D01*
X112104276Y-69868285D01*
X112206351Y-69944786D01*
X112221946Y-69953324D01*
X112342394Y-69998478D01*
X112357649Y-70002105D01*
X112408514Y-70007631D01*
X112415328Y-70008000D01*
X114727885Y-70008000D01*
X114743124Y-70003525D01*
X114744329Y-70002135D01*
X114746000Y-69994452D01*
X114746000Y-69022115D01*
X114741525Y-69006876D01*
X114740135Y-69005671D01*
X114732452Y-69004000D01*
X111970116Y-69004000D01*
X111954877Y-69008475D01*
X111953672Y-69009865D01*
X111952001Y-69017548D01*
X111952001Y-69544669D01*
X90060500Y-69544669D01*
X90060500Y-69022115D01*
X90056025Y-69006876D01*
X90054635Y-69005671D01*
X90046952Y-69004000D01*
X87284615Y-69004000D01*
X87269376Y-69008475D01*
X87268171Y-69009865D01*
X87266500Y-69017548D01*
X87266500Y-69989884D01*
X86758500Y-69989884D01*
X86758500Y-68477885D01*
X87266500Y-68477885D01*
X87270975Y-68493124D01*
X87272365Y-68494329D01*
X87280048Y-68496000D01*
X90042384Y-68496000D01*
X90057623Y-68491525D01*
X90058828Y-68490135D01*
X90060499Y-68482452D01*
X90060499Y-68477885D01*
X111952000Y-68477885D01*
X111956475Y-68493124D01*
X111957865Y-68494329D01*
X111965548Y-68496000D01*
X114727885Y-68496000D01*
X114743124Y-68491525D01*
X114744329Y-68490135D01*
X114746000Y-68482452D01*
X114746000Y-67510116D01*
X114741525Y-67494877D01*
X114740135Y-67493672D01*
X114732452Y-67492001D01*
X112415331Y-67492001D01*
X112408510Y-67492371D01*
X112357648Y-67497895D01*
X112342396Y-67501521D01*
X112221946Y-67546676D01*
X112206351Y-67555214D01*
X112104276Y-67631715D01*
X112091715Y-67644276D01*
X112015214Y-67746351D01*
X112006676Y-67761946D01*
X111961522Y-67882394D01*
X111957895Y-67897649D01*
X111952369Y-67948514D01*
X111952000Y-67955328D01*
X111952000Y-68477885D01*
X90060499Y-68477885D01*
X90060499Y-67955331D01*
X90060129Y-67948510D01*
X90054605Y-67897648D01*
X90050979Y-67882396D01*
X90005824Y-67761946D01*
X89997286Y-67746351D01*
X89920785Y-67644276D01*
X89908224Y-67631715D01*
X89806149Y-67555214D01*
X89790554Y-67546676D01*
X89670106Y-67501522D01*
X89654851Y-67497895D01*
X89603986Y-67492369D01*
X89597172Y-67492000D01*
X87284615Y-67492000D01*
X87269376Y-67496475D01*
X87268171Y-67497865D01*
X87266500Y-67505548D01*
X87266500Y-68477885D01*
X86758500Y-68477885D01*
X86758500Y-67510116D01*
X86754025Y-67494877D01*
X86752635Y-67493672D01*
X86744952Y-67492001D01*
X84984000Y-67492001D01*
X84915879Y-67471999D01*
X84869386Y-67418343D01*
X84858000Y-67366001D01*
X84858000Y-66884000D01*
X84878002Y-66815879D01*
X84931658Y-66769386D01*
X84984000Y-66758000D01*
X117016000Y-66758000D01*
X117084121Y-66778002D01*
G37*
%TD.AperFunction*%
M02*
