%TF.GenerationSoftware,KiCad,Pcbnew,(6.0.1)*%
%TF.CreationDate,2022-03-08T09:49:56-08:00*%
%TF.ProjectId,436.5MHz LNA,3433362e-354d-4487-9a20-4c4e412e6b69,rev?*%
%TF.SameCoordinates,Original*%
%TF.FileFunction,Legend,Top*%
%TF.FilePolarity,Positive*%
%FSLAX46Y46*%
G04 Gerber Fmt 4.6, Leading zero omitted, Abs format (unit mm)*
G04 Created by KiCad (PCBNEW (6.0.1)) date 2022-03-08 09:49:56*
%MOMM*%
%LPD*%
G01*
G04 APERTURE LIST*
%ADD10C,0.125000*%
%ADD11C,0.150000*%
%ADD12C,0.120000*%
G04 APERTURE END LIST*
D10*
X99616666Y-69926190D02*
X99616666Y-69426190D01*
X99902380Y-69926190D02*
X99688095Y-69640476D01*
X99902380Y-69426190D02*
X99616666Y-69711904D01*
X100116666Y-69926190D02*
X100116666Y-69426190D01*
X100402380Y-69926190D02*
X100188095Y-69640476D01*
X100402380Y-69426190D02*
X100116666Y-69711904D01*
X100569047Y-69426190D02*
X100902380Y-69426190D01*
X100688095Y-69926190D01*
X101092857Y-69926190D02*
X101092857Y-69426190D01*
X101211904Y-69426190D01*
X101283333Y-69450000D01*
X101330952Y-69497619D01*
X101354761Y-69545238D01*
X101378571Y-69640476D01*
X101378571Y-69711904D01*
X101354761Y-69807142D01*
X101330952Y-69854761D01*
X101283333Y-69902380D01*
X101211904Y-69926190D01*
X101092857Y-69926190D01*
X101830952Y-69926190D02*
X101592857Y-69926190D01*
X101592857Y-69426190D01*
X101997619Y-69926190D02*
X101997619Y-69426190D01*
X101997619Y-69664285D02*
X102283333Y-69664285D01*
X102283333Y-69926190D02*
X102283333Y-69426190D01*
X110000000Y-67826190D02*
X110095238Y-67826190D01*
X110142857Y-67850000D01*
X110190476Y-67897619D01*
X110214285Y-67992857D01*
X110214285Y-68159523D01*
X110190476Y-68254761D01*
X110142857Y-68302380D01*
X110095238Y-68326190D01*
X110000000Y-68326190D01*
X109952380Y-68302380D01*
X109904761Y-68254761D01*
X109880952Y-68159523D01*
X109880952Y-67992857D01*
X109904761Y-67897619D01*
X109952380Y-67850000D01*
X110000000Y-67826190D01*
X110428571Y-67826190D02*
X110428571Y-68230952D01*
X110452380Y-68278571D01*
X110476190Y-68302380D01*
X110523809Y-68326190D01*
X110619047Y-68326190D01*
X110666666Y-68302380D01*
X110690476Y-68278571D01*
X110714285Y-68230952D01*
X110714285Y-67826190D01*
X110880952Y-67826190D02*
X111166666Y-67826190D01*
X111023809Y-68326190D02*
X111023809Y-67826190D01*
X90888095Y-68226190D02*
X90888095Y-67726190D01*
X91126190Y-68226190D02*
X91126190Y-67726190D01*
X91411904Y-68226190D01*
X91411904Y-67726190D01*
D11*
X96235714Y-68285714D02*
X96235714Y-68952380D01*
X95997619Y-67904761D02*
X95759523Y-68619047D01*
X96378571Y-68619047D01*
X96664285Y-67952380D02*
X97283333Y-67952380D01*
X96950000Y-68333333D01*
X97092857Y-68333333D01*
X97188095Y-68380952D01*
X97235714Y-68428571D01*
X97283333Y-68523809D01*
X97283333Y-68761904D01*
X97235714Y-68857142D01*
X97188095Y-68904761D01*
X97092857Y-68952380D01*
X96807142Y-68952380D01*
X96711904Y-68904761D01*
X96664285Y-68857142D01*
X98140476Y-67952380D02*
X97950000Y-67952380D01*
X97854761Y-68000000D01*
X97807142Y-68047619D01*
X97711904Y-68190476D01*
X97664285Y-68380952D01*
X97664285Y-68761904D01*
X97711904Y-68857142D01*
X97759523Y-68904761D01*
X97854761Y-68952380D01*
X98045238Y-68952380D01*
X98140476Y-68904761D01*
X98188095Y-68857142D01*
X98235714Y-68761904D01*
X98235714Y-68523809D01*
X98188095Y-68428571D01*
X98140476Y-68380952D01*
X98045238Y-68333333D01*
X97854761Y-68333333D01*
X97759523Y-68380952D01*
X97711904Y-68428571D01*
X97664285Y-68523809D01*
X98664285Y-68857142D02*
X98711904Y-68904761D01*
X98664285Y-68952380D01*
X98616666Y-68904761D01*
X98664285Y-68857142D01*
X98664285Y-68952380D01*
X99616666Y-67952380D02*
X99140476Y-67952380D01*
X99092857Y-68428571D01*
X99140476Y-68380952D01*
X99235714Y-68333333D01*
X99473809Y-68333333D01*
X99569047Y-68380952D01*
X99616666Y-68428571D01*
X99664285Y-68523809D01*
X99664285Y-68761904D01*
X99616666Y-68857142D01*
X99569047Y-68904761D01*
X99473809Y-68952380D01*
X99235714Y-68952380D01*
X99140476Y-68904761D01*
X99092857Y-68857142D01*
X100092857Y-68952380D02*
X100092857Y-67952380D01*
X100426190Y-68666666D01*
X100759523Y-67952380D01*
X100759523Y-68952380D01*
X101235714Y-68952380D02*
X101235714Y-67952380D01*
X101235714Y-68428571D02*
X101807142Y-68428571D01*
X101807142Y-68952380D02*
X101807142Y-67952380D01*
X102188095Y-68285714D02*
X102711904Y-68285714D01*
X102188095Y-68952380D01*
X102711904Y-68952380D01*
X104330952Y-68952380D02*
X103854761Y-68952380D01*
X103854761Y-67952380D01*
X104664285Y-68952380D02*
X104664285Y-67952380D01*
X105235714Y-68952380D01*
X105235714Y-67952380D01*
X105664285Y-68666666D02*
X106140476Y-68666666D01*
X105569047Y-68952380D02*
X105902380Y-67952380D01*
X106235714Y-68952380D01*
D10*
X109566666Y-71028571D02*
X109542857Y-71052380D01*
X109471428Y-71076190D01*
X109423809Y-71076190D01*
X109352380Y-71052380D01*
X109304761Y-71004761D01*
X109280952Y-70957142D01*
X109257142Y-70861904D01*
X109257142Y-70790476D01*
X109280952Y-70695238D01*
X109304761Y-70647619D01*
X109352380Y-70600000D01*
X109423809Y-70576190D01*
X109471428Y-70576190D01*
X109542857Y-70600000D01*
X109566666Y-70623809D01*
X110019047Y-70576190D02*
X109780952Y-70576190D01*
X109757142Y-70814285D01*
X109780952Y-70790476D01*
X109828571Y-70766666D01*
X109947619Y-70766666D01*
X109995238Y-70790476D01*
X110019047Y-70814285D01*
X110042857Y-70861904D01*
X110042857Y-70980952D01*
X110019047Y-71028571D01*
X109995238Y-71052380D01*
X109947619Y-71076190D01*
X109828571Y-71076190D01*
X109780952Y-71052380D01*
X109757142Y-71028571D01*
X107216666Y-71826190D02*
X106978571Y-71826190D01*
X106978571Y-71326190D01*
X107335714Y-71326190D02*
X107645238Y-71326190D01*
X107478571Y-71516666D01*
X107550000Y-71516666D01*
X107597619Y-71540476D01*
X107621428Y-71564285D01*
X107645238Y-71611904D01*
X107645238Y-71730952D01*
X107621428Y-71778571D01*
X107597619Y-71802380D01*
X107550000Y-71826190D01*
X107407142Y-71826190D01*
X107359523Y-71802380D01*
X107335714Y-71778571D01*
X104966666Y-71778571D02*
X104942857Y-71802380D01*
X104871428Y-71826190D01*
X104823809Y-71826190D01*
X104752380Y-71802380D01*
X104704761Y-71754761D01*
X104680952Y-71707142D01*
X104657142Y-71611904D01*
X104657142Y-71540476D01*
X104680952Y-71445238D01*
X104704761Y-71397619D01*
X104752380Y-71350000D01*
X104823809Y-71326190D01*
X104871428Y-71326190D01*
X104942857Y-71350000D01*
X104966666Y-71373809D01*
X105395238Y-71492857D02*
X105395238Y-71826190D01*
X105276190Y-71302380D02*
X105157142Y-71659523D01*
X105466666Y-71659523D01*
X102616666Y-71076190D02*
X102378571Y-71076190D01*
X102378571Y-70576190D01*
X102759523Y-70623809D02*
X102783333Y-70600000D01*
X102830952Y-70576190D01*
X102950000Y-70576190D01*
X102997619Y-70600000D01*
X103021428Y-70623809D01*
X103045238Y-70671428D01*
X103045238Y-70719047D01*
X103021428Y-70790476D01*
X102735714Y-71076190D01*
X103045238Y-71076190D01*
X100366666Y-71826190D02*
X100200000Y-71588095D01*
X100080952Y-71826190D02*
X100080952Y-71326190D01*
X100271428Y-71326190D01*
X100319047Y-71350000D01*
X100342857Y-71373809D01*
X100366666Y-71421428D01*
X100366666Y-71492857D01*
X100342857Y-71540476D01*
X100319047Y-71564285D01*
X100271428Y-71588095D01*
X100080952Y-71588095D01*
X100557142Y-71373809D02*
X100580952Y-71350000D01*
X100628571Y-71326190D01*
X100747619Y-71326190D01*
X100795238Y-71350000D01*
X100819047Y-71373809D01*
X100842857Y-71421428D01*
X100842857Y-71469047D01*
X100819047Y-71540476D01*
X100533333Y-71826190D01*
X100842857Y-71826190D01*
X97152380Y-74723809D02*
X97104761Y-74700000D01*
X97057142Y-74652380D01*
X96985714Y-74580952D01*
X96938095Y-74557142D01*
X96890476Y-74557142D01*
X96914285Y-74676190D02*
X96866666Y-74652380D01*
X96819047Y-74604761D01*
X96795238Y-74509523D01*
X96795238Y-74342857D01*
X96819047Y-74247619D01*
X96866666Y-74200000D01*
X96914285Y-74176190D01*
X97009523Y-74176190D01*
X97057142Y-74200000D01*
X97104761Y-74247619D01*
X97128571Y-74342857D01*
X97128571Y-74509523D01*
X97104761Y-74604761D01*
X97057142Y-74652380D01*
X97009523Y-74676190D01*
X96914285Y-74676190D01*
X97604761Y-74676190D02*
X97319047Y-74676190D01*
X97461904Y-74676190D02*
X97461904Y-74176190D01*
X97414285Y-74247619D01*
X97366666Y-74295238D01*
X97319047Y-74319047D01*
X94616666Y-71676190D02*
X94378571Y-71676190D01*
X94378571Y-71176190D01*
X95045238Y-71676190D02*
X94759523Y-71676190D01*
X94902380Y-71676190D02*
X94902380Y-71176190D01*
X94854761Y-71247619D01*
X94807142Y-71295238D01*
X94759523Y-71319047D01*
X92316666Y-71028571D02*
X92292857Y-71052380D01*
X92221428Y-71076190D01*
X92173809Y-71076190D01*
X92102380Y-71052380D01*
X92054761Y-71004761D01*
X92030952Y-70957142D01*
X92007142Y-70861904D01*
X92007142Y-70790476D01*
X92030952Y-70695238D01*
X92054761Y-70647619D01*
X92102380Y-70600000D01*
X92173809Y-70576190D01*
X92221428Y-70576190D01*
X92292857Y-70600000D01*
X92316666Y-70623809D01*
X92792857Y-71076190D02*
X92507142Y-71076190D01*
X92650000Y-71076190D02*
X92650000Y-70576190D01*
X92602380Y-70647619D01*
X92554761Y-70695238D01*
X92507142Y-70719047D01*
X92178571Y-76583333D02*
X92202380Y-76607142D01*
X92226190Y-76678571D01*
X92226190Y-76726190D01*
X92202380Y-76797619D01*
X92154761Y-76845238D01*
X92107142Y-76869047D01*
X92011904Y-76892857D01*
X91940476Y-76892857D01*
X91845238Y-76869047D01*
X91797619Y-76845238D01*
X91750000Y-76797619D01*
X91726190Y-76726190D01*
X91726190Y-76678571D01*
X91750000Y-76607142D01*
X91773809Y-76583333D01*
X91773809Y-76392857D02*
X91750000Y-76369047D01*
X91726190Y-76321428D01*
X91726190Y-76202380D01*
X91750000Y-76154761D01*
X91773809Y-76130952D01*
X91821428Y-76107142D01*
X91869047Y-76107142D01*
X91940476Y-76130952D01*
X92226190Y-76416666D01*
X92226190Y-76107142D01*
X111133333Y-74376190D02*
X111133333Y-74733333D01*
X111109523Y-74804761D01*
X111061904Y-74852380D01*
X110990476Y-74876190D01*
X110942857Y-74876190D01*
X111347619Y-74423809D02*
X111371428Y-74400000D01*
X111419047Y-74376190D01*
X111538095Y-74376190D01*
X111585714Y-74400000D01*
X111609523Y-74423809D01*
X111633333Y-74471428D01*
X111633333Y-74519047D01*
X111609523Y-74590476D01*
X111323809Y-74876190D01*
X111633333Y-74876190D01*
X90533333Y-74376190D02*
X90533333Y-74733333D01*
X90509523Y-74804761D01*
X90461904Y-74852380D01*
X90390476Y-74876190D01*
X90342857Y-74876190D01*
X91033333Y-74876190D02*
X90747619Y-74876190D01*
X90890476Y-74876190D02*
X90890476Y-74376190D01*
X90842857Y-74447619D01*
X90795238Y-74495238D01*
X90747619Y-74519047D01*
X104126190Y-76633333D02*
X103888095Y-76800000D01*
X104126190Y-76919047D02*
X103626190Y-76919047D01*
X103626190Y-76728571D01*
X103650000Y-76680952D01*
X103673809Y-76657142D01*
X103721428Y-76633333D01*
X103792857Y-76633333D01*
X103840476Y-76657142D01*
X103864285Y-76680952D01*
X103888095Y-76728571D01*
X103888095Y-76919047D01*
X103626190Y-76466666D02*
X103626190Y-76157142D01*
X103816666Y-76323809D01*
X103816666Y-76252380D01*
X103840476Y-76204761D01*
X103864285Y-76180952D01*
X103911904Y-76157142D01*
X104030952Y-76157142D01*
X104078571Y-76180952D01*
X104102380Y-76204761D01*
X104126190Y-76252380D01*
X104126190Y-76395238D01*
X104102380Y-76442857D01*
X104078571Y-76466666D01*
X96076190Y-76583333D02*
X95838095Y-76750000D01*
X96076190Y-76869047D02*
X95576190Y-76869047D01*
X95576190Y-76678571D01*
X95600000Y-76630952D01*
X95623809Y-76607142D01*
X95671428Y-76583333D01*
X95742857Y-76583333D01*
X95790476Y-76607142D01*
X95814285Y-76630952D01*
X95838095Y-76678571D01*
X95838095Y-76869047D01*
X96076190Y-76107142D02*
X96076190Y-76392857D01*
X96076190Y-76250000D02*
X95576190Y-76250000D01*
X95647619Y-76297619D01*
X95695238Y-76345238D01*
X95719047Y-76392857D01*
X105433333Y-75076190D02*
X105433333Y-75433333D01*
X105409523Y-75504761D01*
X105361904Y-75552380D01*
X105290476Y-75576190D01*
X105242857Y-75576190D01*
X105623809Y-75076190D02*
X105933333Y-75076190D01*
X105766666Y-75266666D01*
X105838095Y-75266666D01*
X105885714Y-75290476D01*
X105909523Y-75314285D01*
X105933333Y-75361904D01*
X105933333Y-75480952D01*
X105909523Y-75528571D01*
X105885714Y-75552380D01*
X105838095Y-75576190D01*
X105695238Y-75576190D01*
X105647619Y-75552380D01*
X105623809Y-75528571D01*
X100278571Y-76633333D02*
X100302380Y-76657142D01*
X100326190Y-76728571D01*
X100326190Y-76776190D01*
X100302380Y-76847619D01*
X100254761Y-76895238D01*
X100207142Y-76919047D01*
X100111904Y-76942857D01*
X100040476Y-76942857D01*
X99945238Y-76919047D01*
X99897619Y-76895238D01*
X99850000Y-76847619D01*
X99826190Y-76776190D01*
X99826190Y-76728571D01*
X99850000Y-76657142D01*
X99873809Y-76633333D01*
X99826190Y-76466666D02*
X99826190Y-76157142D01*
X100016666Y-76323809D01*
X100016666Y-76252380D01*
X100040476Y-76204761D01*
X100064285Y-76180952D01*
X100111904Y-76157142D01*
X100230952Y-76157142D01*
X100278571Y-76180952D01*
X100302380Y-76204761D01*
X100326190Y-76252380D01*
X100326190Y-76395238D01*
X100302380Y-76442857D01*
X100278571Y-76466666D01*
D12*
X93610000Y-76990580D02*
X93610000Y-76709420D01*
X92590000Y-76990580D02*
X92590000Y-76709420D01*
X103272500Y-76612742D02*
X103272500Y-77087258D01*
X102227500Y-76612742D02*
X102227500Y-77087258D01*
X95222500Y-76612742D02*
X95222500Y-77087258D01*
X94177500Y-76612742D02*
X94177500Y-77087258D01*
X107830000Y-78505000D02*
X105230000Y-78505000D01*
X105230000Y-75845000D02*
X105230000Y-78505000D01*
X107830000Y-75845000D02*
X107830000Y-78505000D01*
X110430000Y-75845000D02*
X110430000Y-77175000D01*
X109100000Y-75845000D02*
X110430000Y-75845000D01*
X107830000Y-75845000D02*
X105230000Y-75845000D01*
X101710000Y-76990580D02*
X101710000Y-76709420D01*
X100690000Y-76990580D02*
X100690000Y-76709420D01*
M02*
